<svg width="82" height="93" viewBox="0 0 82 93" fill="none" xmlns="http://www.w3.org/2000/svg">
<path d="M4.69922 71.7812V86H1.76953V71.7812H4.69922ZM13.2148 71.7812L7.58008 78.8027L4.32812 82.2988L3.80078 79.5254L5.99805 76.5176L9.62109 71.7812H13.2148ZM9.88477 86L5.69531 79.4277L7.86328 77.6113L13.3516 86H9.88477ZM17.7996 71.7812V86H14.8797V71.7812H17.7996ZM25.109 86H22.0133L22.0328 83.7148H25.109C25.8772 83.7148 26.525 83.5423 27.0523 83.1973C27.5797 82.8457 27.9768 82.3346 28.2437 81.6641C28.5172 80.9935 28.6539 80.1829 28.6539 79.2324V78.5391C28.6539 77.8099 28.5758 77.1686 28.4195 76.6152C28.2698 76.0618 28.0452 75.5964 27.7457 75.2188C27.4462 74.8411 27.0784 74.5579 26.6422 74.3691C26.206 74.1738 25.7047 74.0762 25.1383 74.0762H21.9547V71.7812H25.1383C26.0888 71.7812 26.9579 71.944 27.7457 72.2695C28.54 72.5885 29.2268 73.0475 29.8062 73.6465C30.3857 74.2454 30.8316 74.9616 31.1441 75.7949C31.4632 76.6217 31.6227 77.543 31.6227 78.5586V79.2324C31.6227 80.2415 31.4632 81.1628 31.1441 81.9961C30.8316 82.8294 30.3857 83.5456 29.8062 84.1445C29.2333 84.737 28.5465 85.196 27.7457 85.5215C26.9514 85.8405 26.0725 86 25.109 86ZM23.6734 71.7812V86H20.7437V71.7812H23.6734ZM41.3539 82.2793C41.3539 82.0254 41.3148 81.7975 41.2367 81.5957C41.1651 81.3874 41.0284 81.1986 40.8266 81.0293C40.6247 80.8535 40.3415 80.681 39.977 80.5117C39.6124 80.3424 39.1404 80.1667 38.5609 79.9844C37.9164 79.776 37.3044 79.5417 36.725 79.2812C36.1521 79.0208 35.6443 78.7181 35.2016 78.373C34.7654 78.0215 34.4203 77.6146 34.1664 77.1523C33.919 76.6901 33.7953 76.153 33.7953 75.541C33.7953 74.9486 33.9255 74.4115 34.1859 73.9297C34.4464 73.4414 34.8109 73.0247 35.2797 72.6797C35.7484 72.3281 36.3018 72.0579 36.9398 71.8691C37.5844 71.6803 38.2908 71.5859 39.059 71.5859C40.1072 71.5859 41.0219 71.7747 41.8031 72.1523C42.5844 72.5299 43.1898 73.0475 43.6195 73.7051C44.0557 74.3626 44.2738 75.1146 44.2738 75.9609H41.3637C41.3637 75.5443 41.2758 75.1797 41.1 74.8672C40.9307 74.5482 40.6703 74.2975 40.3187 74.1152C39.9737 73.9329 39.5375 73.8418 39.0102 73.8418C38.5023 73.8418 38.0792 73.9199 37.7406 74.0762C37.4021 74.2259 37.1482 74.431 36.9789 74.6914C36.8096 74.9453 36.725 75.2318 36.725 75.5508C36.725 75.7917 36.7836 76.0098 36.9008 76.2051C37.0245 76.4004 37.2068 76.5827 37.4477 76.752C37.6885 76.9212 37.9848 77.0807 38.3363 77.2305C38.6879 77.3802 39.0948 77.5267 39.557 77.6699C40.3318 77.9043 41.0121 78.168 41.598 78.4609C42.1905 78.7539 42.6853 79.0827 43.0824 79.4473C43.4796 79.8118 43.779 80.2253 43.9809 80.6875C44.1827 81.1497 44.2836 81.6738 44.2836 82.2598C44.2836 82.8783 44.1631 83.4316 43.9223 83.9199C43.6814 84.4082 43.3331 84.8216 42.8773 85.1602C42.4216 85.4987 41.878 85.7559 41.2465 85.9316C40.615 86.1074 39.9086 86.1953 39.1273 86.1953C38.4242 86.1953 37.7309 86.1042 37.0473 85.9219C36.3637 85.7331 35.7419 85.4499 35.182 85.0723C34.6286 84.6947 34.1859 84.2129 33.8539 83.627C33.5219 83.041 33.3559 82.3477 33.3559 81.5469H36.2953C36.2953 81.9896 36.3637 82.3639 36.5004 82.6699C36.6371 82.9759 36.8292 83.2233 37.0766 83.4121C37.3305 83.6009 37.6299 83.7376 37.975 83.8223C38.3266 83.9069 38.7107 83.9492 39.1273 83.9492C39.6352 83.9492 40.0518 83.8776 40.3773 83.7344C40.7094 83.5911 40.9535 83.3926 41.1098 83.1387C41.2725 82.8848 41.3539 82.5983 41.3539 82.2793Z" fill="#1D1F20"/>
<path d="M50.0195 68.4688V77H48.2617V68.4688H50.0195ZM53.418 72.1133V73.4844H49.5391V72.1133H53.418ZM53.8281 68.4688V69.8457H49.5391V68.4688H53.8281ZM56.8368 68.4688V77H55.0848V68.4688H56.8368ZM58.6033 68.4688H61.7849C62.4373 68.4688 62.9978 68.5664 63.4666 68.7617C63.9392 68.957 64.3025 69.2461 64.5564 69.6289C64.8103 70.0117 64.9373 70.4824 64.9373 71.041C64.9373 71.498 64.8591 71.8906 64.7029 72.2188C64.5505 72.543 64.3337 72.8145 64.0525 73.0332C63.7752 73.248 63.449 73.4199 63.074 73.5488L62.5173 73.8418H59.7517L59.74 72.4707H61.7966C62.1052 72.4707 62.3611 72.416 62.5642 72.3066C62.7673 72.1973 62.9197 72.0449 63.0212 71.8496C63.1267 71.6543 63.1795 71.4277 63.1795 71.1699C63.1795 70.8965 63.1287 70.6602 63.0271 70.4609C62.9255 70.2617 62.7712 70.1094 62.5642 70.0039C62.3572 69.8984 62.0974 69.8457 61.7849 69.8457H60.3611V77H58.6033V68.4688ZM63.3728 77L61.4275 73.1973L63.2849 73.1855L65.2537 76.918V77H63.3728ZM70.8522 74.7676C70.8522 74.6152 70.8288 74.4785 70.7819 74.3574C70.7389 74.2324 70.6569 74.1191 70.5358 74.0176C70.4147 73.9121 70.2448 73.8086 70.026 73.707C69.8073 73.6055 69.5241 73.5 69.1764 73.3906C68.7897 73.2656 68.4225 73.125 68.0748 72.9688C67.7311 72.8125 67.4264 72.6309 67.1608 72.4238C66.8991 72.2129 66.692 71.9688 66.5397 71.6914C66.3913 71.4141 66.317 71.0918 66.317 70.7246C66.317 70.3691 66.3952 70.0469 66.5514 69.7578C66.7077 69.4648 66.9264 69.2148 67.2077 69.0078C67.4889 68.7969 67.8209 68.6348 68.2038 68.5215C68.5905 68.4082 69.0143 68.3516 69.4752 68.3516C70.1041 68.3516 70.653 68.4648 71.1217 68.6914C71.5905 68.918 71.9538 69.2285 72.2116 69.623C72.4733 70.0176 72.6041 70.4688 72.6041 70.9766H70.858C70.858 70.7266 70.8053 70.5078 70.6998 70.3203C70.5983 70.1289 70.442 69.9785 70.2311 69.8691C70.0241 69.7598 69.7623 69.7051 69.4459 69.7051C69.1413 69.7051 68.8873 69.752 68.6842 69.8457C68.4811 69.9355 68.3288 70.0586 68.2272 70.2148C68.1256 70.3672 68.0748 70.5391 68.0748 70.7305C68.0748 70.875 68.11 71.0059 68.1803 71.123C68.2545 71.2402 68.3639 71.3496 68.5084 71.4512C68.653 71.5527 68.8307 71.6484 69.0416 71.7383C69.2526 71.8281 69.4967 71.916 69.7741 72.002C70.2389 72.1426 70.6471 72.3008 70.9987 72.4766C71.3541 72.6523 71.651 72.8496 71.8893 73.0684C72.1276 73.2871 72.3073 73.5352 72.4284 73.8125C72.5495 74.0898 72.61 74.4043 72.61 74.7559C72.61 75.127 72.5377 75.459 72.3932 75.752C72.2487 76.0449 72.0397 76.293 71.7663 76.4961C71.4928 76.6992 71.1666 76.8535 70.7877 76.959C70.4088 77.0645 69.985 77.1172 69.5163 77.1172C69.0944 77.1172 68.6784 77.0625 68.2682 76.9531C67.858 76.8398 67.485 76.6699 67.1491 76.4434C66.817 76.2168 66.5514 75.9277 66.3522 75.5762C66.153 75.2246 66.0534 74.8086 66.0534 74.3281H67.817C67.817 74.5938 67.858 74.8184 67.9401 75.002C68.0221 75.1855 68.1373 75.334 68.2858 75.4473C68.4381 75.5605 68.6178 75.6426 68.8248 75.6934C69.0358 75.7441 69.2663 75.7695 69.5163 75.7695C69.8209 75.7695 70.0709 75.7266 70.2663 75.6406C70.4655 75.5547 70.612 75.4355 70.7057 75.2832C70.8034 75.1309 70.8522 74.959 70.8522 74.7676ZM77.7398 68.4688V77H75.9878V68.4688H77.7398ZM80.3648 68.4688V69.8457H73.4038V68.4688H80.3648Z" fill="#1D1F20"/>
<path d="M80.7893 50.8754C79.9893 56.8754 76.1226 58.7088 74.2893 58.8754C74.2893 56.4754 73.9558 54.5421 73.7891 53.8755H72.2891H50.2891C46.2891 53.7088 37.7891 53.4755 35.7891 53.8755C33.2891 54.3755 33.2891 54.8755 32.2891 55.8755C31.7891 56.8755 31.6224 58.7088 31.7891 59.8755H31.2891C20.8891 59.4755 19.6224 47.0422 20.2891 40.8755C20.2891 40.0755 20.6224 34.8755 20.7891 32.3755H20.2891C5.78906 31.8755 2.78897 21.3755 1.78897 17.3754C0.788966 13.3754 2.28897 2.37542 7.78897 0.37542C13.289 -1.62458 16.2893 4.87542 13.7893 7.87542C11.2893 10.8754 10.7893 15.8754 13.7893 19.3754C16.1893 22.1754 20.1226 22.2088 21.7893 21.8754V17.3754C22.5893 8.57542 29.7893 5.37542 33.2893 4.87542H67.7893C75.7893 5.67542 78.456 13.5421 78.7893 17.3754C79.1893 21.7754 80.2893 41.5421 80.7893 50.8754Z" fill="#658DA6"/>
<path d="M39.2891 25.375L38.7891 4.875H54.2891V24.875C53.9557 26.875 51.9891 30.875 46.7891 30.875C41.5891 30.875 39.6224 27.2083 39.2891 25.375Z" fill="#8DB3C6"/>
<circle cx="32.2891" cy="21.375" r="5.5" fill="#F6F8F8"/>
<circle cx="32.7891" cy="22.875" r="4" fill="#1D1F20"/>
<path d="M16.5 59V69.5L28.5 58V40C22.1 42 17.8333 40.8333 16.5 40V59Z" fill="#CEC863"/>
<path d="M4.5 40V58L16.5 69.5V59V40C14.3333 41 8.9 42.4 4.5 40Z" fill="#E8E582"/>
<path d="M75.5 59.8159C75.157 62.3887 73.2861 63.4285 72.5 63.5C72.5 62.4708 72.5715 61.3882 72.5 61.1023H71.855H62.4212C60.706 61.0308 57.0611 60.9308 56.2035 61.1023C55.1314 61.3167 55.1314 61.5311 54.7026 61.9599C54.4882 62.3887 54.4168 63.1749 54.4882 63.6752H54.2738C49.8142 63.5037 49.2711 58.1721 49.5569 55.5278C49.5569 55.1847 49.6999 52.9549 49.7713 51.8829H49.5569C43.3392 51.6685 42.0527 47.166 41.6239 45.4507C41.1951 43.7355 41.8383 39.0186 44.1968 38.161C46.5552 37.3034 47.8418 40.0906 46.7698 41.3771C45.6977 42.6635 45.4833 44.8075 46.7698 46.3084C47.7989 47.509 49.4856 47.5233 50.2002 47.3804V45.4507C50.5433 41.6772 53.6307 40.305 55.1316 40.0906H69.9255C73.356 40.4337 74.4994 43.807 74.6424 45.4507C74.8139 47.3375 75.2856 55.8136 75.5 59.8159Z" fill="#C8C5C5"/>
<path d="M59.7066 48.8804L59.4922 40.0898H66.1387V48.666C65.9958 49.5237 65.1525 51.2389 62.9227 51.2389C60.6929 51.2389 59.8495 49.6666 59.7066 48.8804Z" fill="#93A0AA"/>
<circle cx="54.7061" cy="47.167" r="2.35845" fill="#F6F8F8"/>
<circle cx="54.2152" cy="46.7152" r="1.71524" fill="#1D1F20"/>
<path d="M11.7529 47.2264C14.2643 46.4429 15.7662 47.8796 16.4639 48.6958C16.4639 48.3039 17.8591 47.5531 18.5567 47.2267C21.696 46.2472 24.3121 48.6958 23.2657 51.6341C22.4285 53.9847 18.3823 56.8575 16.4639 58C15.9406 57.5103 11.8032 53.8065 10.7068 52.8762C9.24271 51.6338 8.61358 48.2058 11.7529 47.2264Z" fill="#FF5757"/>
</svg>
