<svg width="189" height="189" viewBox="0 0 189 189" fill="none" xmlns="http://www.w3.org/2000/svg">
<path d="M147.291 91.1779L141.982 104.675L162.008 112.552L167.317 99.0544L147.291 91.1779Z" fill="#E5E9E9"/>
<path d="M167.31 99.225C167.229 99.2707 167.143 99.3062 167.053 99.3308L166.297 99.603L163.53 100.548L154.345 103.644L154.269 103.67L154.228 103.598L154.133 103.432L149.253 94.9007L147.798 92.3152L147.42 91.6045C147.37 91.5252 147.329 91.4402 147.299 91.3513C147.358 91.4241 147.41 91.5026 147.454 91.5856L147.877 92.2774L149.389 94.844L154.303 103.345L154.402 103.512L154.284 103.47L163.492 100.427L166.282 99.5312L167.038 99.2968C167.127 99.2659 167.218 99.2419 167.31 99.225Z" fill="#D6D9D9"/>
<path d="M141.973 104.85C141.95 104.804 144.184 103.546 146.963 102.041C149.741 100.537 152.02 99.3535 152.047 99.3951C152.073 99.4367 149.839 100.699 147.057 102.204C144.275 103.708 141.999 104.899 141.973 104.85Z" fill="#D6D9D9"/>
<path d="M158.76 101.852C158.813 101.852 159.58 104.256 160.472 107.261C161.364 110.266 162.045 112.708 161.984 112.723C161.924 112.738 161.164 110.319 160.272 107.314C159.38 104.309 158.718 101.867 158.76 101.852Z" fill="#D6D9D9"/>
<path d="M81.0994 147.965L61.8458 157.577L68.3242 170.554L87.5778 160.942L81.0994 147.965Z" fill="#E5E9E9"/>
<path d="M81.2359 148.097C81.2104 148.186 81.1789 148.273 81.1414 148.357L80.839 149.095C80.5631 149.752 80.1737 150.671 79.705 151.793L75.857 160.695L75.823 160.767H75.7436L75.5546 160.726L65.9534 158.643L63.0466 157.989L62.2603 157.8C62.168 157.781 62.0771 157.756 61.9882 157.724C62.0826 157.726 62.1765 157.738 62.2679 157.762L63.0617 157.913L65.9798 158.507L75.5999 160.518L75.7889 160.559L75.6793 160.616C77.1913 157.154 78.5786 154.024 79.5803 151.741C80.083 150.625 80.4913 149.714 80.7823 149.064C80.9222 148.766 81.0318 148.524 81.115 148.342C81.1463 148.256 81.1869 148.174 81.2359 148.097Z" fill="#D6D9D9"/>
<path d="M68.4595 170.686C68.4066 170.686 68.966 168.172 69.7069 165.099C70.4478 162.026 71.098 159.542 71.1471 159.558C71.1962 159.573 70.6406 162.071 69.8997 165.144C69.1588 168.218 68.5087 170.697 68.4595 170.686Z" fill="#D6D9D9"/>
<path d="M77.4672 156.201C77.4899 156.152 79.8033 157.203 82.6307 158.548C85.4581 159.894 87.7375 161.028 87.6959 161.073C87.6543 161.119 85.3636 160.072 82.5324 158.726C79.7012 157.38 77.4445 156.246 77.4672 156.201Z" fill="#D6D9D9"/>
<path d="M49.4688 99.2552C56.7869 94.3715 58.571 85.1331 58.4161 76.802C58.3896 75.411 58.5673 73.9481 57.9171 72.7158C57.2669 71.4836 55.7134 70.6293 54.4433 71.2038C53.3887 71.6763 52.9313 72.8708 52.3151 73.8499C51.5088 75.1673 50.3465 76.23 48.9623 76.9154C48.0589 77.3615 46.9438 77.6261 46.0668 77.1309C44.861 76.4505 44.7438 74.7911 44.774 73.4076L44.9441 65.6775C44.9744 64.2978 45.0008 62.8841 44.5661 61.5648C44.1314 60.2456 43.2091 59.0134 41.8823 58.6278C40.5556 58.2422 38.8924 58.9718 38.59 60.3212C38.4652 60.8807 38.59 61.4552 38.5257 62.0411C38.4614 62.627 38.1968 63.247 37.6412 63.3982C37.0855 63.5494 36.5261 63.1524 36.1292 62.7404C34.7041 61.3229 33.7516 59.5085 32.8633 57.7093C31.975 55.91 31.1093 54.0616 29.8393 52.5193C28.5692 50.9771 26.7548 49.7448 24.7476 49.6012C22.7404 49.4575 20.5896 50.6482 20.0491 52.5874C19.5085 54.5265 20.635 56.5223 21.8635 58.1175C23.6934 60.4912 25.8579 62.587 28.2895 64.3394C28.7279 64.6569 29.2004 64.9971 29.3592 65.5112C29.6503 66.4373 28.7506 67.3407 27.8245 67.6318C26.7737 67.9568 25.6435 67.8359 24.551 67.9455C23.4586 68.0551 22.283 68.5125 21.8332 69.5255C21.2398 70.9317 22.4153 72.4286 23.5758 73.4189C25.9068 75.3948 28.5565 76.9606 31.4117 78.0494C32.4361 78.4274 33.5172 78.779 34.3375 79.5047C35.1577 80.2305 35.6378 81.4817 35.1199 82.4494C34.6021 83.417 33.3093 83.7081 32.232 83.4964C31.1547 83.2847 30.1984 82.6875 29.1778 82.2906C27.2651 81.5346 24.7741 81.6367 23.5078 83.2621C22.6837 84.328 22.5854 85.8325 22.9786 87.1252C23.4289 88.4017 24.1321 89.5742 25.0462 90.5726C28.0549 94.2438 31.9799 97.0551 36.424 98.7223C40.8655 100.317 44.9971 100.794 49.4612 99.2552" fill="#E5E9E9"/>
<path d="M47.3521 94.0086C46.0187 89.4512 44.4234 84.9745 42.5741 80.6009C42.0903 79.4316 41.6128 78.28 41.1415 77.146C40.6652 76.012 40.1965 74.878 39.6711 73.8234C38.6485 71.7699 37.5128 69.7748 36.2691 67.8472C35.1011 65.9988 33.9179 64.2865 32.8066 62.6913C31.6953 61.0961 30.6142 59.637 29.5823 58.3405C27.9601 56.2888 26.1779 54.3689 24.2525 52.5987C23.5721 51.9712 23.0278 51.4987 22.6573 51.185L22.2302 50.8296L22.0828 50.7162C22.0828 50.7162 22.1243 50.7616 22.2188 50.8485L22.6309 51.2265C23.0089 51.5516 23.5267 52.0279 24.1996 52.663C26.1026 54.4511 27.869 56.3792 29.484 58.4312C30.5084 59.7278 31.5706 61.1982 32.6819 62.7896C33.7932 64.3809 34.9499 66.1046 36.1255 67.953C37.3569 69.8766 38.4813 71.8666 39.4934 73.9141C40.0189 74.9801 40.4838 76.0914 40.9563 77.2292C41.4288 78.3669 41.9051 79.4972 42.3889 80.6803C44.2357 85.0467 45.8334 89.5142 47.1744 94.0615" fill="#D6D9D9"/>
<path d="M39.6181 73.8045C39.6804 73.6122 39.7259 73.4149 39.7542 73.2148C39.8298 72.8368 39.9243 72.2774 40.0301 71.5894C40.2456 70.2173 40.4837 68.3084 40.737 66.2067C40.9903 64.105 41.2586 62.1999 41.493 60.8353C41.614 60.1511 41.7198 59.5993 41.7954 59.2175C41.8439 59.0226 41.8767 58.8241 41.8937 58.624C41.8165 58.8108 41.757 59.0045 41.716 59.2024C41.614 59.5804 41.4892 60.1247 41.338 60.8089C41.0545 62.1697 40.7635 64.0748 40.5102 66.1802C40.2569 68.2857 40.0377 70.153 39.8676 71.5705C39.7807 72.2282 39.7088 72.7763 39.6559 73.1997C39.6251 73.3998 39.6125 73.6022 39.6181 73.8045Z" fill="#D6D9D9"/>
<path d="M21.6593 70.2135C21.7201 70.2289 21.782 70.239 21.8445 70.2437L22.3775 70.2967C22.8387 70.342 23.5115 70.4063 24.3318 70.5083C25.9761 70.7049 28.2441 71.0602 30.7275 71.5592C33.211 72.0581 35.4336 72.6176 37.0326 73.0712C37.8339 73.2904 38.4765 73.4832 38.9226 73.6155L39.4366 73.7667C39.4965 73.788 39.5587 73.802 39.6219 73.8083C39.5692 73.774 39.5119 73.7472 39.4518 73.7289L38.949 73.5399C38.5105 73.3811 37.8755 73.1619 37.059 72.9275C35.4676 72.4399 33.2412 71.8654 30.754 71.3588C28.2667 70.8523 25.9874 70.5272 24.328 70.3685C23.5002 70.2815 22.816 70.24 22.3624 70.2211H21.8256C21.7708 70.2107 21.7148 70.2081 21.6593 70.2135Z" fill="#D6D9D9"/>
<path d="M47.1554 93.6722C47.2048 93.6058 47.2454 93.5334 47.2764 93.4567C47.3595 93.2904 47.4654 93.0787 47.5939 92.8141C47.8623 92.2585 48.2365 91.442 48.6825 90.4289C49.5784 88.4066 50.7313 85.5716 51.9636 82.4267C53.1958 79.2817 54.3261 76.4429 55.1841 74.4055L56.2161 71.9977L56.492 71.3399C56.5286 71.2649 56.5577 71.1864 56.5789 71.1056C56.529 71.1722 56.4872 71.2446 56.4542 71.321L56.1405 71.9636C55.8683 72.5193 55.4979 73.3358 55.0518 74.3488C54.1522 76.3711 53.0031 79.2061 51.7708 82.3511C50.5385 85.496 49.4083 88.3348 48.5464 90.3722L47.5183 92.7801L47.2386 93.4378C47.2018 93.5124 47.1739 93.5911 47.1554 93.6722Z" fill="#D6D9D9"/>
<path d="M23.3414 85.7039C23.418 85.7421 23.4977 85.7737 23.5796 85.7984L24.2713 86.0328L26.8379 86.8833C28.9925 87.6053 31.956 88.6372 35.2295 89.7864C38.503 90.9355 41.4741 91.9447 43.6438 92.6327C44.7249 92.9729 45.6056 93.2451 46.218 93.4189L46.9211 93.6155C47.0016 93.6444 47.0854 93.6635 47.1706 93.6722C47.0949 93.632 47.015 93.6003 46.9324 93.5777L46.2407 93.3395L43.6892 92.489C41.5346 91.7708 38.571 90.7389 35.2976 89.5898C32.0241 88.4407 29.053 87.4314 26.8871 86.7434C25.8022 86.3995 24.9215 86.1311 24.3091 85.9572L23.606 85.7569C23.5203 85.7288 23.4314 85.711 23.3414 85.7039Z" fill="#D6D9D9"/>
<path d="M49.8279 16.8588H28.5011C27.0314 16.8588 25.84 18.0502 25.84 19.5199V30.0548C25.84 31.5245 27.0314 32.7159 28.5011 32.7159H49.8279C51.2975 32.7159 52.489 31.5245 52.489 30.0548V19.5199C52.489 18.0502 51.2975 16.8588 49.8279 16.8588Z" fill="#D6D9D9"/>
<path d="M42.0487 32.2132L48.35 37.8076L48.8678 32.3114" fill="#D6D9D9"/>
<path d="M35.6982 25.016C35.6982 25.3233 35.6071 25.6237 35.4364 25.8792C35.2657 26.1346 35.0231 26.3338 34.7392 26.4514C34.4553 26.5689 34.1429 26.5997 33.8416 26.5398C33.5402 26.4798 33.2634 26.3319 33.0461 26.1146C32.8288 25.8973 32.6809 25.6205 32.6209 25.3191C32.561 25.0178 32.5917 24.7054 32.7093 24.4215C32.8269 24.1376 33.026 23.895 33.2815 23.7243C33.537 23.5536 33.8374 23.4625 34.1446 23.4625C34.5567 23.4625 34.9518 23.6261 35.2432 23.9175C35.5345 24.2088 35.6982 24.604 35.6982 25.016Z" fill="#FCFCFC"/>
<path d="M41.0356 25.016C41.0356 25.3235 40.9444 25.624 40.7735 25.8795C40.6027 26.1351 40.3598 26.3342 40.0757 26.4517C39.7916 26.5692 39.479 26.5997 39.1776 26.5395C38.8761 26.4792 38.5993 26.3309 38.3822 26.1132C38.165 25.8956 38.0174 25.6184 37.9579 25.3168C37.8983 25.0152 37.9296 24.7027 38.0478 24.4189C38.166 24.1351 38.3657 23.8927 38.6217 23.7224C38.8777 23.5522 39.1784 23.4617 39.4858 23.4625C39.6897 23.4625 39.8915 23.5027 40.0798 23.5808C40.2681 23.6589 40.4391 23.7734 40.583 23.9177C40.727 24.062 40.8411 24.2333 40.9187 24.4218C40.9964 24.6103 41.0361 24.8122 41.0356 25.016Z" fill="#FCFCFC"/>
<path d="M46.3768 25.016C46.3768 25.3235 46.2856 25.624 46.1147 25.8795C45.9438 26.1351 45.701 26.3342 45.4169 26.4517C45.1328 26.5692 44.8202 26.5997 44.5188 26.5395C44.2173 26.4792 43.9405 26.3309 43.7233 26.1132C43.5062 25.8956 43.3586 25.6184 43.299 25.3168C43.2395 25.0152 43.2708 24.7027 43.389 24.4189C43.5072 24.1351 43.7069 23.8927 43.9629 23.7224C44.2188 23.5522 44.5196 23.4617 44.827 23.4625C45.2384 23.4635 45.6326 23.6276 45.9231 23.9188C46.2137 24.2101 46.3768 24.6047 46.3768 25.016Z" fill="#FCFCFC"/>
<path d="M127.017 33.8694L121.709 47.3668L141.735 55.2433L147.044 41.7458L127.017 33.8694Z" fill="#E5E9E9"/>
<path d="M147.042 41.9202C146.961 41.9663 146.874 42.0031 146.785 42.0298L146.029 42.2982L143.262 43.2545L134.073 46.3504L133.997 46.3768L133.956 46.305L133.861 46.1387L128.977 37.6072C128.373 36.5261 127.874 35.6454 127.518 35.0104L127.14 34.2997C127.09 34.2198 127.048 34.1349 127.016 34.0465C127.076 34.1193 127.129 34.1978 127.174 34.2808L127.594 34.9726C127.972 35.6 128.475 36.4846 129.106 37.5392L134.02 46.0404L134.114 46.2105L134.001 46.1651L143.205 43.1411L145.999 42.2415L146.755 42.0071C146.848 41.9709 146.944 41.9419 147.042 41.9202Z" fill="#D6D9D9"/>
<path d="M121.716 47.5448C121.689 47.4995 123.923 46.2407 126.702 44.7363C129.48 43.2319 131.759 42.0487 131.786 42.0903C131.812 42.1319 129.578 43.3944 126.796 44.8988C124.014 46.4033 121.716 47.594 121.716 47.5448Z" fill="#D6D9D9"/>
<path d="M138.495 44.5473C138.544 44.5473 139.312 46.9552 140.204 49.9565C141.096 52.9578 141.78 55.4072 141.716 55.4224C141.652 55.4375 140.899 53.0145 140.007 50.0132C139.115 47.0119 138.442 44.5624 138.495 44.5473Z" fill="#D6D9D9"/>
<path d="M176.942 176.307C176.942 176.36 140.03 176.405 94.5038 176.405C48.9775 176.405 12.0582 176.36 12.0582 176.307C12.0582 176.254 48.9624 176.208 94.5038 176.208C140.045 176.208 176.942 176.25 176.942 176.307Z" fill="#081821"/>
<path d="M97.4862 97.8718C100.179 97.8718 102.362 95.6886 102.362 92.9956C102.362 90.3025 100.179 88.1194 97.4862 88.1194C94.7931 88.1194 92.61 90.3025 92.61 92.9956C92.61 95.6886 94.7931 97.8718 97.4862 97.8718Z" fill="#EB7005"/>
<path d="M114.269 97.8718C116.962 97.8718 119.146 95.6886 119.146 92.9956C119.146 90.3025 116.962 88.1194 114.269 88.1194C111.576 88.1194 109.393 90.3025 109.393 92.9956C109.393 95.6886 111.576 97.8718 114.269 97.8718Z" fill="#EB7005"/>
<path d="M146.724 67.764C146.819 67.7444 146.916 67.738 147.012 67.7451C147.295 67.7464 147.578 67.7781 147.855 67.8396C148.314 67.9355 148.757 68.1013 149.166 68.331C149.735 68.6501 150.234 69.0808 150.633 69.5973C151.146 70.2564 151.479 71.0383 151.597 71.8653C151.632 72.0969 151.653 72.3305 151.657 72.5646C151.657 72.799 151.657 73.0334 151.657 73.2753C151.657 73.7591 151.657 74.2657 151.657 74.7873C151.676 76.8852 151.691 79.2968 151.714 81.9995C151.741 87.4087 151.771 93.9859 151.809 101.557C151.809 103.45 151.816 105.403 151.831 107.416C151.831 108.424 151.831 109.446 151.831 110.482C151.831 111 151.831 111.521 151.831 112.047C151.831 112.308 151.831 112.572 151.831 112.837C151.827 113.123 151.801 113.408 151.756 113.691C151.56 114.866 150.964 115.937 150.068 116.723C149.172 117.508 148.032 117.96 146.842 118L139.954 118.023L140.363 117.645C139.917 122.487 139.448 127.601 138.957 132.909L138.881 133.736L138.238 133.207L119.75 117.974L120.053 118.08L82.1696 118.099H73.2753C72.9729 118.099 72.6969 118.099 72.3756 118.099C71.5625 118.08 70.765 117.871 70.0469 117.489C69.3289 117.107 68.7102 116.562 68.2403 115.899C67.8659 115.372 67.5906 114.781 67.4276 114.156C67.2876 113.549 67.2304 112.926 67.2575 112.304C67.2575 111.145 67.2575 109.988 67.2575 108.834C67.2575 106.533 67.2575 104.249 67.2575 101.981C67.2575 92.9086 67.2764 84.1768 67.284 75.8495C67.284 74.81 67.284 73.7743 67.284 72.7499C67.2694 72.1944 67.3395 71.6399 67.4919 71.1056C67.647 70.5677 67.8855 70.0575 68.1987 69.5936C68.8283 68.6795 69.7325 67.9897 70.7805 67.6242C71.2941 67.441 71.8342 67.3427 72.3794 67.3331C72.8935 67.3331 73.3735 67.3331 73.8725 67.3331L85.3486 67.3558L105.946 67.4163L135.774 67.5713L143.882 67.6658L145.991 67.7149C146.232 67.7098 146.472 67.7262 146.709 67.764C146.472 67.8043 146.232 67.8208 145.991 67.8132L143.882 67.8623L135.774 67.9568L105.946 68.1118L85.3486 68.1723L73.8725 68.195C73.3849 68.195 72.8746 68.195 72.3983 68.195C71.9443 68.203 71.4947 68.286 71.0677 68.4407C70.2 68.7474 69.4522 69.3219 68.9321 70.0812C68.4063 70.8609 68.1416 71.7874 68.1761 72.7272C68.1761 73.7516 68.1761 74.7873 68.1761 75.8268C68.1761 84.1428 68.195 92.8935 68.2063 101.958C68.2063 104.226 68.2063 106.51 68.2063 108.811V112.281C68.1786 112.822 68.2269 113.364 68.3499 113.891C68.5478 114.66 68.9556 115.358 69.5278 115.907C70.0999 116.456 70.8138 116.836 71.5894 117.002C71.8482 117.057 72.1113 117.088 72.3756 117.097C72.644 117.097 72.9578 117.097 73.2488 117.097H82.215L120.098 117.116H120.268L120.401 117.225L138.847 132.508L138.125 132.807C138.635 127.515 139.127 122.389 139.595 117.55L139.629 117.172H140.007H146.872C147.885 117.142 148.856 116.763 149.621 116.098C150.386 115.433 150.897 114.524 151.068 113.525C151.106 113.283 151.128 113.04 151.132 112.795C151.132 112.531 151.132 112.266 151.132 112.005C151.132 111.48 151.132 110.958 151.132 110.44C151.132 109.405 151.132 108.383 151.132 107.375C151.132 105.359 151.139 103.406 151.155 101.516C151.192 93.9557 151.223 87.3671 151.249 81.958C151.272 79.2553 151.287 76.8436 151.306 74.7457C151.306 74.2241 151.306 73.7176 151.306 73.2337C151.306 72.9918 151.306 72.7574 151.306 72.5231C151.306 72.3032 151.292 72.0835 151.264 71.8653C151.167 71.0868 150.872 70.3462 150.406 69.7145C150.039 69.2109 149.575 68.7855 149.042 68.4633C148.653 68.2269 148.233 68.0474 147.794 67.9304C147.114 67.7792 146.724 67.8018 146.724 67.764Z" fill="#EB7005"/>
<path d="M41.8257 92.0316H115.453C116.796 92.0316 118.084 92.5653 119.034 93.5152C119.984 94.4651 120.518 95.7535 120.518 97.0968V136.81C120.518 138.153 119.984 139.441 119.034 140.391C118.084 141.341 116.796 141.875 115.453 141.875H41.8257C40.4833 141.875 39.1959 141.341 38.2467 140.392C37.2975 139.443 36.7643 138.156 36.7643 136.813V97.0968C36.7638 96.4319 36.8943 95.7733 37.1485 95.1588C37.4026 94.5442 37.7754 93.9858 38.2454 93.5154C38.7154 93.045 39.2736 92.6719 39.8879 92.4173C40.5022 92.1627 41.1607 92.0316 41.8257 92.0316Z" fill="#EB7005"/>
<path d="M87.7112 140.28L107.515 157.864L109.14 140.593" fill="#EB7005"/>
<path d="M62.869 122.532C65.5621 122.532 67.7452 120.349 67.7452 117.656C67.7452 114.963 65.5621 112.78 62.869 112.78C60.176 112.78 57.9928 114.963 57.9928 117.656C57.9928 120.349 60.176 122.532 62.869 122.532Z" fill="#FCFCFC"/>
<path d="M79.6522 122.532C82.3453 122.532 84.5284 120.349 84.5284 117.656C84.5284 114.963 82.3453 112.78 79.6522 112.78C76.9591 112.78 74.776 114.963 74.776 117.656C74.776 120.349 76.9591 122.532 79.6522 122.532Z" fill="#FCFCFC"/>
<path d="M96.4354 122.532C99.1285 122.532 101.312 120.349 101.312 117.656C101.312 114.963 99.1285 112.78 96.4354 112.78C93.7424 112.78 91.5592 114.963 91.5592 117.656C91.5592 120.349 93.7424 122.532 96.4354 122.532Z" fill="#FCFCFC"/>
<g opacity="0.3">
<path d="M117.392 92.232L109.522 92.0014H48.6637C53.7213 97.0326 60.9525 99.7239 68.0551 100.344C75.1577 100.964 82.2981 99.8827 89.3252 98.6655C96.3522 97.4484 103.409 96.0876 110.542 96.1405C112.054 96.1405 113.608 96.2161 115.006 95.6567C116.405 95.0972 117.6 93.744 117.392 92.232Z" fill="#081821"/>
</g>
<path d="M131.053 97.8718C133.746 97.8718 135.929 95.6886 135.929 92.9956C135.929 90.3025 133.746 88.1194 131.053 88.1194C128.36 88.1194 126.176 90.3025 126.176 92.9956C126.176 95.6886 128.36 97.8718 131.053 97.8718Z" fill="#EB7005"/>
<path d="M89.0304 21.2965C87.0663 21.3263 85.162 21.9768 83.5901 23.1548C82.0183 24.3328 80.8595 25.978 80.2797 27.8548C79.7278 29.794 79.8374 31.8578 79.4821 33.8461C79.1268 35.8344 78.1251 37.9134 76.2389 38.6316C75.0104 39.0965 73.5929 38.9038 72.3833 39.3876C71.8143 39.6156 71.3116 39.9828 70.9214 40.4555C70.5311 40.9281 70.2657 41.4912 70.1495 42.093C70.0332 42.6948 70.0699 43.3162 70.2561 43.9002C70.4423 44.4842 70.7721 45.0121 71.2152 45.4356C70.468 46.0794 69.9671 46.9623 69.7978 47.934C69.6285 48.9056 69.8013 49.9059 70.2867 50.7645C70.7722 51.6231 71.5403 52.2868 72.4601 52.6426C73.38 52.9984 74.3948 53.0243 75.3316 52.7159C74.6323 53.8499 74.8629 55.3619 75.6832 56.3976C76.5566 57.4016 77.7889 58.0232 79.1154 58.1288C80.4287 58.2272 81.7493 58.1084 83.024 57.7773C85.8892 57.1423 88.762 56.1217 90.9166 54.1296C93.2791 51.9448 94.5303 48.8376 95.4791 45.7493C97.2859 39.8714 98.2498 33.5399 96.7718 27.5713" fill="#081821"/>
<path d="M75.857 54.054L72.6705 61.0205L65.6964 45.6511C65.3675 44.4074 64.9971 43.0051 64.9215 42.7253C64.8091 42.2952 64.7695 41.8493 64.8043 41.4061C64.8275 40.8558 64.9267 40.3114 65.0991 39.7883C65.307 39.3233 64.8421 38.8508 64.4414 39.0776C64.0407 39.3044 63.4397 40.5896 63.4586 42.2037C63.4775 43.8178 57.8567 39.9622 56.9457 40.8769L57.6261 46.2823C58.2422 46.8455 59.981 48.3991 60.9487 49.2572L67.5259 65.6246C67.8944 66.632 68.5437 67.5128 69.397 68.1628C70.2503 68.8129 71.2719 69.2051 72.341 69.2929C73.41 69.3808 74.4819 69.1607 75.4299 68.6587C76.3779 68.1566 77.1622 67.3937 77.6903 66.46L81.9277 58.9907L75.857 54.054Z" fill="#FFBE9D"/>
<path d="M61.081 35.91C61.1085 35.9002 61.1378 35.8963 61.1669 35.8985C61.196 35.9007 61.2243 35.9091 61.25 35.923C61.2757 35.9369 61.2981 35.956 61.3159 35.9792C61.3337 36.0024 61.3464 36.029 61.3532 36.0574L64.9707 46.7964C65.0048 46.8902 65.0062 46.9928 64.9746 47.0875C64.9431 47.1822 64.8804 47.2635 64.7968 47.318L60.5027 49.7259C60.4592 49.7485 60.4112 49.7611 60.3623 49.7628C60.3133 49.7645 60.2646 49.7552 60.2196 49.7357C60.1747 49.7161 60.1347 49.6867 60.1026 49.6497C60.0705 49.6127 60.047 49.569 60.034 49.5218L55.9667 38.4048C55.926 38.3046 55.9248 38.1927 55.9634 38.0917C56.002 37.9907 56.0775 37.908 56.1746 37.8605L61.081 35.91Z" fill="#081821"/>
<path d="M61.1982 36.7L64.5246 46.2785L60.2721 48.5465L56.6168 38.5182L61.1982 36.7Z" fill="#D6D9D9"/>
<path d="M57.4296 39.1684C57.5582 39.4972 57.7698 40.0264 57.9021 40.3553C57.9174 40.394 57.9404 40.4292 57.9696 40.4588C57.9988 40.4884 58.0336 40.5119 58.0721 40.5277C58.1105 40.5436 58.1518 40.5516 58.1933 40.5512C58.2349 40.5508 58.276 40.542 58.3142 40.5254L60.5822 39.5766L61.3646 39.69L61.1454 39.278L61.4024 39.1721C61.4411 39.1568 61.4763 39.1339 61.5059 39.1047C61.5355 39.0755 61.559 39.0407 61.5749 39.0022C61.5907 38.9638 61.5987 38.9225 61.5983 38.8809C61.5979 38.8393 61.5891 38.7983 61.5725 38.7601L61.1114 37.6828C61.0789 37.6079 61.0182 37.5489 60.9425 37.5184C60.8668 37.488 60.7821 37.4887 60.7069 37.5203L57.6149 38.7677C57.5759 38.7811 57.5401 38.8023 57.5095 38.83C57.4789 38.8576 57.4542 38.8912 57.4369 38.9286C57.4197 38.966 57.4101 39.0065 57.4088 39.0477C57.4076 39.0889 57.4146 39.13 57.4296 39.1684Z" fill="#D6D9D9"/>
<path d="M59.346 44.8308L59.8185 46.0139C59.8338 46.0522 59.8566 46.0869 59.8856 46.1162C59.9145 46.1455 59.9489 46.1688 59.987 46.1846C60.025 46.2005 60.0657 46.2086 60.1069 46.2085C60.1481 46.2084 60.1888 46.2001 60.2267 46.184L62.4947 45.2353L63.2772 45.3487L63.058 44.9366L63.315 44.8308C63.3537 44.8155 63.3889 44.7926 63.4185 44.7634C63.4481 44.7342 63.4716 44.6993 63.4875 44.6609C63.5033 44.6224 63.5113 44.5812 63.5109 44.5396C63.5105 44.498 63.5017 44.4569 63.4851 44.4188L63.0239 43.3453C63.0086 43.308 62.9861 43.2741 62.9576 43.2455C62.9292 43.217 62.8954 43.1943 62.8581 43.1789C62.8209 43.1634 62.781 43.1555 62.7407 43.1555C62.7004 43.1555 62.6605 43.1635 62.6233 43.1789L59.5274 44.4263C59.4887 44.4406 59.4532 44.4624 59.423 44.4906C59.3928 44.5188 59.3685 44.5527 59.3516 44.5904C59.3347 44.6281 59.3255 44.6687 59.3245 44.71C59.3236 44.7513 59.3309 44.7924 59.346 44.8308Z" fill="#D6D9D9"/>
<path d="M61.992 40.5065C62.1356 40.8278 62.37 41.3532 62.5061 41.6745C62.5228 41.7124 62.5317 41.7533 62.5324 41.7947C62.5331 41.8361 62.5254 41.8772 62.5099 41.9156C62.4944 41.954 62.4713 41.989 62.4421 42.0183C62.4129 42.0477 62.3781 42.0709 62.3397 42.0865L60.0717 43.0315L59.6068 43.6703L59.4632 43.2205L59.2099 43.3339C59.1719 43.3501 59.1311 43.3587 59.0899 43.3591C59.0486 43.3595 59.0077 43.3517 58.9694 43.3363C58.9311 43.3208 58.8963 43.298 58.8668 43.269C58.8374 43.2401 58.814 43.2056 58.7979 43.1676L58.3518 42.0827C58.3215 42.0069 58.3219 41.9223 58.3529 41.8468C58.384 41.7712 58.4433 41.7108 58.5182 41.6783L61.5762 40.3477C61.6138 40.3302 61.6546 40.3204 61.6961 40.3189C61.7375 40.3174 61.7789 40.3243 61.8177 40.3391C61.8565 40.3539 61.8919 40.3764 61.9218 40.4051C61.9518 40.4339 61.9756 40.4683 61.992 40.5065Z" fill="#D6D9D9"/>
<path d="M56.9457 41.1453C57.6752 41.2663 58.5711 41.3381 59.3006 41.459C59.5111 41.4772 59.7144 41.5445 59.8941 41.6556C59.9809 41.7145 60.0448 41.8016 60.0751 41.902C60.1054 42.0025 60.1002 42.1104 60.0604 42.2075C59.9432 42.4192 59.6559 42.4343 59.414 42.4267C58.8773 42.4267 58.28 42.525 57.7433 42.5061C58.4312 42.5666 59.0663 42.6233 59.8336 42.714C59.9965 42.7298 60.1492 42.8006 60.2667 42.9146C60.3841 43.0286 60.4593 43.1791 60.48 43.3415C60.468 43.4788 60.4081 43.6076 60.3106 43.7051C60.2131 43.8025 60.0843 43.8625 59.947 43.8745C59.6651 43.894 59.3822 43.894 59.1003 43.8745C59.1003 43.8745 57.9927 43.8745 57.9436 44.0332C58.6353 44.0332 59.5463 44.1769 60.2381 44.2411C60.4271 44.2411 60.5102 44.5133 60.5556 44.6985C60.583 44.7895 60.5785 44.8871 60.5427 44.9751C60.507 45.0632 60.4421 45.1363 60.359 45.1823C60.2714 45.2112 60.1787 45.2215 60.0869 45.2126C59.191 45.1861 58.7261 45.2428 57.8189 45.2126" fill="#FFBE9D"/>
<path d="M73.5362 65.995C73.6056 65.1313 73.5752 64.2625 73.4454 63.4057C73.2503 62.5606 72.9573 61.7411 72.5723 60.9638C72.7553 61.1498 72.9049 61.3659 73.0145 61.6027C73.3106 62.1561 73.5209 62.7513 73.6382 63.3679C73.7603 63.9904 73.7845 64.628 73.71 65.2579C73.6962 65.512 73.6373 65.7616 73.5362 65.995Z" fill="#EB996E"/>
<path d="M60.4045 44.3545C59.8827 44.3927 59.3581 44.3648 58.8433 44.2714C58.4162 44.2298 58.0231 44.1428 57.7622 44.1428C57.6181 44.152 57.4776 44.1919 57.3502 44.26C57.3502 44.26 57.3502 44.2071 57.4183 44.1466C57.5109 44.065 57.6277 44.0159 57.7509 44.0068C58.1239 43.9954 58.4972 44.0182 58.866 44.0748C59.3883 44.1051 59.9049 44.199 60.4045 44.3545Z" fill="#EB996E"/>
<path d="M60.1587 42.7858C59.6421 42.8242 59.1227 42.7976 58.6127 42.7064C58.1893 42.6649 57.8 42.5741 57.5467 42.5817C57.2935 42.5893 57.1687 42.7367 57.146 42.714C57.1234 42.6913 57.2179 42.4985 57.524 42.4456C57.6921 42.4229 57.8625 42.4229 58.0306 42.4456L58.6278 42.5099C59.1476 42.5377 59.6619 42.6304 60.1587 42.7858Z" fill="#EB996E"/>
<path d="M81.7274 75.1691C81.7274 75.1691 58.7223 73.4303 52.0658 78.6391C45.4092 83.848 48.5957 92.2471 48.5957 92.2471H86.2143L87.6582 74.8969L81.7274 75.1691Z" fill="#081821"/>
<path d="M86.0555 87.1177C85.9429 87.1203 85.8303 87.1127 85.7191 87.095C85.4999 87.0685 85.1748 87.0383 84.7628 86.9816C83.9312 86.8757 82.7291 86.7056 81.2512 86.4562C77.4032 85.7943 73.5967 84.9109 69.8507 83.8102C67.6621 83.16 65.5831 82.5136 63.6666 82.026C61.973 81.5882 60.2415 81.3135 58.4956 81.2057C57.3185 81.1405 56.1379 81.209 54.9764 81.4099C54.5606 81.4628 54.2506 81.5648 54.0352 81.6026C53.9259 81.6316 53.8147 81.6531 53.7025 81.6669C53.8067 81.6244 53.9142 81.5903 54.0238 81.5648C54.332 81.4715 54.6449 81.3946 54.9612 81.3343C56.1267 81.1019 57.316 81.0118 58.5031 81.0659C60.2599 81.1548 62.0035 81.4181 63.7082 81.8521C65.636 82.3171 67.7188 82.9861 69.9074 83.6174C73.6455 84.7146 77.4382 85.6168 81.2701 86.3201C82.7405 86.5847 83.9387 86.7775 84.7628 86.906L85.7153 87.0534C85.9421 87.0912 86.0555 87.1139 86.0555 87.1177Z" fill="#00434C"/>
<path d="M64.3432 81.9353C63.6976 81.3944 63.0057 80.9113 62.2756 80.4913C61.5149 80.1283 60.7229 79.8348 59.9093 79.6144C60.164 79.5964 60.4199 79.6232 60.6653 79.6937C61.26 79.823 61.8346 80.0315 62.3739 80.3137C62.9119 80.5972 63.4101 80.9505 63.8556 81.3645C64.0492 81.5259 64.2141 81.7189 64.3432 81.9353Z" fill="#00434C"/>
<path d="M98.3783 73.0031C98.3783 73.0031 77.335 73.5739 70.6784 78.7828C64.0218 83.9916 67.2084 92.3908 67.2084 92.3908L106.672 92.988V87.9039L101.553 87.352L101.516 87.1177C103.5 84.9442 101.988 77.369 98.6845 73.3736L98.3783 73.0031Z" fill="#081821"/>
<path d="M104.287 87.696C104.174 87.6957 104.061 87.6869 103.95 87.6695C103.731 87.6469 103.41 87.6128 102.994 87.5599C102.162 87.4541 100.96 87.284 99.4859 87.0307C95.6362 86.3715 91.8283 85.488 88.0816 84.3847C85.8892 83.7346 83.8178 83.0768 81.8976 82.6043C80.2068 82.1634 78.4778 81.8849 76.7341 81.7727C75.5571 81.7075 74.3765 81.776 73.2149 81.9769C72.7991 82.0298 72.4891 82.1356 72.2737 82.1734C72.1646 82.2027 72.0534 82.2229 71.941 82.2339C72.0451 82.1919 72.1526 82.159 72.2623 82.1356C72.5705 82.0412 72.8834 81.9629 73.1998 81.9013C74.3634 81.6751 75.5501 81.59 76.7341 81.648C78.4899 81.7265 80.2335 81.9798 81.9391 82.404C83.8707 82.8727 85.9497 83.538 88.1383 84.173C91.8787 85.2675 95.674 86.1646 99.5086 86.8606C100.979 87.129 102.177 87.3218 103.005 87.4503L103.958 87.5977C104.07 87.6204 104.18 87.6533 104.287 87.696Z" fill="#00434C"/>
<path d="M82.5741 82.4947C81.928 81.9533 81.2362 81.469 80.5064 81.047C79.744 80.688 78.9524 80.3946 78.1401 80.17C78.3951 80.1524 78.6511 80.1805 78.8961 80.2532C80.0917 80.5128 81.1951 81.09 82.0902 81.9239C82.282 82.0861 82.4455 82.279 82.5741 82.4947Z" fill="#00434C"/>
<path d="M87.4995 73.8763C87.3929 73.9042 87.2842 73.9232 87.1744 73.933L86.237 74.0653C85.4281 74.1863 84.2563 74.3828 82.835 74.6701C81.4137 74.9574 79.6901 75.3316 77.8038 75.7814C75.7597 76.2529 73.8002 77.0356 71.994 78.1024C71.0651 78.6583 70.2146 79.3359 69.4652 80.1171C68.7737 80.8507 68.185 81.6747 67.715 82.5665C66.9209 84.0837 66.4998 85.7682 66.4865 87.4805C66.4762 88.6335 66.6445 89.7811 66.9855 90.8825C67.1064 91.2605 67.2198 91.5705 67.2992 91.7708C67.3427 91.872 67.3806 91.9755 67.4126 92.0808C67.3522 91.988 67.3015 91.8892 67.2614 91.786C67.1302 91.4986 67.0142 91.2047 66.9137 90.9052C66.4498 89.5283 66.2676 88.0721 66.378 86.6233C66.4884 85.1746 66.8891 83.7628 67.5563 82.472C68.0272 81.5621 68.6212 80.7213 69.3215 79.9735C70.0819 79.1776 70.9465 78.4884 71.8919 77.9247C73.7091 76.8492 75.6835 76.0648 77.7434 75.6C79.6334 75.1577 81.3457 74.8024 82.7897 74.5303C84.2336 74.2581 85.413 74.0842 86.2257 73.9859C86.6339 73.9368 86.9514 73.9028 87.1707 73.8877C87.28 73.878 87.3898 73.8742 87.4995 73.8763Z" fill="#00434C"/>
<path d="M106.672 88.1572L110.27 87.9304L112.655 89.3176L117.225 89.8166C119.414 89.93 119.762 92.2849 118.416 92.2849C117.346 92.2849 110.947 92.7007 110.947 92.7007L106.672 92.8141V88.1572Z" fill="#D6D9D9"/>
<path d="M112.519 89.3252C112.363 89.4607 112.172 89.5498 111.967 89.5822C111.478 89.7048 110.963 89.6729 110.492 89.4908C110.022 89.3088 109.62 88.9855 109.34 88.5654C109.21 88.4053 109.129 88.2111 109.106 88.006C109.132 88.006 109.227 88.2025 109.454 88.486C109.744 88.8538 110.127 89.1368 110.564 89.3057C111.001 89.4746 111.475 89.5231 111.937 89.4462C112.296 89.3895 112.508 89.295 112.519 89.3252Z" fill="#00434C"/>
<path d="M118.231 92.232C118.231 92.2547 118.049 92.3 117.792 92.1677C117.636 92.0703 117.501 91.9413 117.397 91.7891C117.293 91.6368 117.222 91.4645 117.188 91.2832C117.08 90.9303 117.114 90.5494 117.282 90.221C117.426 89.9716 117.6 89.8997 117.611 89.9224C117.622 89.9451 117.501 90.0509 117.407 90.3004C117.293 90.6076 117.283 90.9438 117.38 91.2568C117.439 91.576 117.61 91.8634 117.864 92.0657C118.065 92.2018 118.235 92.2093 118.231 92.232Z" fill="#00434C"/>
<path d="M82.782 44.3659C82.782 44.3659 78.2951 54.2279 78.5597 55.9024C78.8243 57.577 80.136 64.26 80.136 64.26L81.0848 75.1313C81.0848 75.1313 98.0305 73.0787 98.382 73.0787C98.7336 73.0787 97.8528 64.0861 97.8528 64.0861L100.435 46.804C100.435 46.804 99.2514 44.449 93.9141 43.6325C90.72 43.1374 82.782 44.3659 82.782 44.3659Z" fill="#EB7005"/>
<path d="M95.1691 57.6563C95.3853 59.4145 95.9276 61.1169 96.768 62.6762C97.0931 63.2621 97.3955 64.0861 97.9322 64.4868C98.7714 65.1181 99.9772 64.5246 100.737 63.8026C101.497 63.0806 102.268 62.1659 103.315 62.1281C103.984 62.1054 104.604 62.4532 105.258 62.593C105.912 62.7329 106.77 62.5174 106.91 61.8673C106.952 61.4832 106.861 61.0963 106.653 60.7711C105.049 57.5851 103.821 54.2235 102.994 50.7541C102.645 49.7687 102.199 48.8203 101.663 47.9228C101.285 47.284 100.31 46.3579 99.3497 45.5792" fill="#EB7005"/>
<path d="M85.98 43.7119C81.3154 43.8745 77.8189 46.9589 76.8248 49.1816C75.6568 51.7898 74.7496 54.9423 73.3812 57.4522C73.0741 57.9196 72.836 58.4288 72.6744 58.9642C72.5989 59.2353 72.6076 59.5229 72.6995 59.7889C72.7913 60.0549 72.9618 60.2867 73.1884 60.4535C73.8915 60.8693 74.9121 60.3288 75.5585 60.8315C75.9138 61.1037 76.0197 61.5875 76.3145 61.9277C76.6925 62.3322 77.286 62.4154 77.8265 62.4758L80.9752 62.816" fill="#EB7005"/>
<path d="M94.122 53.3358C94.0457 53.218 93.9847 53.091 93.9406 52.9578C93.8055 52.6031 93.7117 52.234 93.6609 51.8578C93.4759 50.5996 93.7311 49.3162 94.3834 48.2245C95.0356 47.1328 96.0449 46.2998 97.2405 45.8665C97.5957 45.7345 97.9648 45.6432 98.3405 45.5944C98.4783 45.5728 98.6186 45.5728 98.7563 45.5944C98.2575 45.6983 97.7672 45.8398 97.2897 46.0177C96.144 46.4681 95.1801 47.2857 94.5487 48.3425C93.9174 49.3993 93.6543 50.6356 93.8007 51.8578C93.873 52.3574 93.9804 52.8513 94.122 53.3358Z" fill="#081821"/>
<path d="M81.3116 49.4726C81.2462 49.6435 81.1652 49.808 81.0697 49.964C80.9828 50.119 80.8807 50.308 80.7786 50.5348C80.6766 50.7616 80.5405 51.0111 80.4233 51.2908C80.1324 51.9657 79.8862 52.6589 79.6862 53.366C79.4463 54.2335 79.2732 55.1181 79.1684 56.012C79.0745 56.9059 79.0467 57.8055 79.0852 58.7034C79.122 59.4364 79.2066 60.1662 79.3385 60.8882C79.3876 61.1982 79.4594 61.4704 79.5123 61.7161C79.5653 61.9618 79.622 62.1659 79.6711 62.336C79.7269 62.51 79.7687 62.6882 79.7958 62.869C79.7124 62.7059 79.6453 62.535 79.5955 62.3587C79.5219 62.1567 79.4588 61.951 79.4065 61.7425C79.3422 61.5006 79.2591 61.2247 79.2024 60.9147C79.0494 60.1884 78.9496 59.4518 78.9038 58.711C78.7901 56.8924 78.9961 55.0681 79.5123 53.3207C79.7225 52.6091 79.9853 51.9142 80.2986 51.2417C80.4117 50.9834 80.5379 50.7311 80.6766 50.4857C80.7735 50.2935 80.8807 50.1068 80.9979 49.9262C81.0882 49.7656 81.1932 49.6138 81.3116 49.4726Z" fill="#081821"/>
<path d="M106.634 60.5329C106.634 60.5329 106.634 60.5745 106.596 60.6425C106.542 60.7418 106.469 60.8292 106.381 60.8996C106.035 61.1409 105.609 61.2372 105.194 61.168C104.665 61.1075 104.116 60.79 103.478 60.6766C103.129 60.632 102.774 60.6651 102.44 60.7736C102.105 60.8821 101.799 61.0632 101.542 61.304C100.949 61.7803 100.465 62.3587 99.8941 62.748C99.6294 62.9441 99.329 63.0867 99.0096 63.1676C98.7298 63.2235 98.4437 63.2413 98.1591 63.2205C97.7478 63.2024 97.3475 63.0816 96.9949 62.869C96.9012 62.8058 96.8182 62.7279 96.7492 62.6384C96.7089 62.5729 96.69 62.5388 96.6925 62.5363C96.7995 62.634 96.9146 62.7225 97.0365 62.8009C97.3876 62.9809 97.7759 63.0766 98.1705 63.0806C98.4408 63.0912 98.7114 63.067 98.9756 63.0088C99.2723 62.9256 99.5506 62.787 99.7959 62.6006C100.333 62.2226 100.805 61.6442 101.425 61.1491C101.726 60.9033 102.066 60.7091 102.431 60.5745C102.779 60.4526 103.154 60.4265 103.515 60.4989C104.196 60.6463 104.729 60.9601 105.216 61.0281C105.605 61.1086 106.009 61.0412 106.35 60.8391C106.459 60.7512 106.555 60.6481 106.634 60.5329Z" fill="#FAFAFA"/>
<path d="M105.553 58.3216C105.552 58.3585 105.543 58.3948 105.526 58.4275C105.484 58.5233 105.421 58.6085 105.341 58.6769C105.186 58.7955 105.006 58.8778 104.815 58.9177C104.624 58.9576 104.427 58.9541 104.237 58.9075C103.753 58.8281 103.254 58.5106 102.657 58.4804C101.995 58.4904 101.353 58.7072 100.82 59.1003C100.23 59.4972 99.724 59.9659 99.1986 60.3212C98.7406 60.656 98.2092 60.8763 97.6488 60.9638C97.2644 61.0229 96.8712 60.9718 96.5148 60.8164C96.3834 60.7661 96.2656 60.6859 96.1708 60.5821C96.1708 60.5821 96.2993 60.6577 96.5488 60.7484C96.8942 60.8655 97.2639 60.8915 97.6223 60.824C98.156 60.7249 98.6586 60.5008 99.0889 60.17C99.5955 59.8185 100.094 59.346 100.703 58.9378C101.269 58.5207 101.954 58.2967 102.657 58.2989C102.961 58.3269 103.258 58.4022 103.538 58.522C103.771 58.6228 104.011 58.7062 104.256 58.7714C104.429 58.8206 104.61 58.8322 104.787 58.8054C104.964 58.7787 105.134 58.7143 105.284 58.6165C105.388 58.5324 105.479 58.433 105.553 58.3216Z" fill="#FAFAFA"/>
<path d="M79.0701 61.1944C79.0701 61.1944 79.002 61.2965 78.7979 61.3418C78.6552 61.3642 78.5095 61.3562 78.3701 61.3184C78.2307 61.2806 78.1009 61.2139 77.989 61.1226C77.6837 60.8401 77.4437 60.4944 77.2859 60.1096C77.2039 59.8897 77.0758 59.6899 76.9102 59.5237C76.7446 59.3574 76.5453 59.2285 76.3258 59.1457C75.8482 59.0699 75.3601 59.0957 74.8932 59.2213C74.4842 59.3208 74.0553 59.3011 73.6571 59.1646C73.5228 59.1121 73.4004 59.0332 73.2972 58.9326C73.1939 58.8319 73.112 58.7116 73.0561 58.5787C72.9843 58.3859 73.0221 58.2687 73.0296 58.2725C73.0372 58.2763 73.0296 58.3821 73.1241 58.5484C73.2536 58.7753 73.4601 58.9483 73.7062 59.036C74.0847 59.1409 74.4845 59.1409 74.8629 59.036C75.3544 58.8958 75.871 58.8674 76.3749 58.9529C76.6437 59.0249 76.8831 59.1796 77.0591 59.3951C77.2094 59.5887 77.3363 59.7993 77.4371 60.0226C77.579 60.3908 77.7923 60.7274 78.0646 61.013C78.2604 61.1847 78.515 61.2741 78.7752 61.2625C78.875 61.2469 78.9735 61.2241 79.0701 61.1944Z" fill="#FAFAFA"/>
<path d="M78.4993 58.968C78.4993 58.968 78.4162 59.0134 78.2725 58.968C78.0742 58.8919 77.9076 58.7506 77.8 58.5673C77.6791 58.3151 77.5065 58.091 77.2935 57.9096C76.9815 57.7719 76.6311 57.7478 76.3032 57.8416C75.9393 57.9192 75.5632 57.9192 75.1994 57.8416C74.901 57.772 74.6196 57.6435 74.3716 57.4636C74.1317 57.3195 73.9397 57.1078 73.8197 56.855C73.8499 56.8323 74.0314 57.0931 74.451 57.3502C74.9989 57.6798 75.6529 57.7854 76.2767 57.645C76.648 57.5433 77.0438 57.5823 77.388 57.7546C77.6244 57.9596 77.8073 58.2191 77.921 58.5106C78.0057 58.6779 78.137 58.817 78.299 58.9113C78.4162 58.968 78.4993 58.968 78.4993 58.968Z" fill="#FAFAFA"/>
<path d="M96.2615 60.9223C96.2615 60.9223 96.0233 60.8731 95.5962 60.7748C95.169 60.6766 94.5491 60.5291 93.778 60.3968C93.4 60.3288 92.9691 60.257 92.5155 60.2003C92.0349 60.1314 91.5485 60.1124 91.064 60.1436C90.5342 60.2158 90.0219 60.3836 89.552 60.6388C89.053 60.8882 88.5503 61.1906 88.006 61.459C87.4768 61.7366 86.8968 61.9038 86.3012 61.9504C85.7483 61.9727 85.1953 61.9115 84.6606 61.769C83.7857 61.4972 82.8943 61.2813 81.992 61.1226C81.3836 61.0311 80.7621 61.0895 80.1813 61.2927C79.9769 61.3854 79.7776 61.4889 79.5841 61.6027C79.5841 61.6027 79.6219 61.5573 79.7126 61.4817C79.8493 61.3798 79.9963 61.2924 80.1511 61.2209C80.7382 60.9853 81.3757 60.9033 82.0033 60.9827C82.9164 61.1221 83.8184 61.3267 84.7022 61.5951C85.2208 61.7259 85.7554 61.7819 86.2898 61.7614C86.8592 61.7104 87.4129 61.5472 87.919 61.2814C88.452 61.0205 88.9547 60.7181 89.465 60.4649C89.9562 60.2044 90.49 60.0341 91.0413 59.9621C91.539 59.9345 92.0382 59.9598 92.5306 60.0377C92.9918 60.102 93.4151 60.1814 93.8007 60.2608C94.5567 60.4233 95.1879 60.5896 95.6113 60.7106C95.823 60.7748 95.9893 60.824 96.0951 60.8656C96.201 60.9071 96.2652 60.9147 96.2615 60.9223Z" fill="#FAFAFA"/>
<path d="M96.6509 62.8198C96.6509 62.8198 96.4241 62.7291 96.0234 62.559C95.6227 62.3889 95.0331 62.1545 94.2922 61.9277C93.89 61.7999 93.4778 61.7063 93.0599 61.648C92.5833 61.6071 92.1035 61.6703 91.6537 61.8332C90.6898 62.1621 89.7637 62.869 88.6297 63.315C88.0738 63.5271 87.4821 63.6298 86.8872 63.6174C86.3414 63.6057 85.7976 63.5476 85.2618 63.4435C84.3731 63.2407 83.4712 63.1005 82.5628 63.0239C81.9526 62.9853 81.3406 63.0635 80.7598 63.2545C80.3515 63.4019 80.1512 63.5418 80.1399 63.5267C80.1285 63.5116 80.1852 63.4813 80.2797 63.4171C80.4226 63.326 80.5731 63.2476 80.7295 63.1827C81.3146 62.9574 81.9404 62.8569 82.5666 62.8879C83.4835 62.9428 84.3948 63.0692 85.292 63.2659C86.2975 63.436 87.4617 63.572 88.5579 63.1336C89.6541 62.6951 90.5764 61.9996 91.5819 61.6631C92.057 61.4968 92.5633 61.4387 93.0637 61.493C93.4905 61.5546 93.9106 61.6559 94.3186 61.7954C94.9058 61.9929 95.4802 62.2265 96.0385 62.4947C96.2351 62.5892 96.3863 62.6686 96.4846 62.7253C96.5438 62.7496 96.5997 62.7814 96.6509 62.8198Z" fill="#FAFAFA"/>
<path d="M91.6008 62.1432C91.6008 62.1432 91.5063 62.1734 91.3287 62.1886C91.0767 62.2091 90.8233 62.2028 90.5727 62.1697C90.1984 62.1253 89.8306 62.0378 89.4765 61.9088C89.0443 61.7485 88.6331 61.5365 88.2517 61.2776C87.8747 61.0092 87.5308 60.6971 87.2274 60.3477C86.9829 60.0612 86.7735 59.7465 86.6037 59.4103C86.4841 59.1868 86.389 58.9511 86.3202 58.7072C86.2748 58.5371 86.2521 58.4388 86.2672 58.435C86.2824 58.4312 86.4109 58.813 86.7246 59.346C86.9083 59.6609 87.1222 59.9572 87.3634 60.2305C87.6658 60.5592 88.0015 60.8557 88.3651 61.115C88.7331 61.3662 89.1273 61.5766 89.5407 61.7425C89.8819 61.8737 90.2352 61.9712 90.5953 62.0336C91.2077 62.1356 91.6008 62.1054 91.6008 62.1432Z" fill="#081821"/>
<g opacity="0.3">
<path d="M86.2786 58.8433C86.5356 60.2494 87.0724 61.6518 88.0967 62.6497C89.1211 63.6476 90.7049 64.1617 92.0355 63.6287C92.181 63.5888 92.3147 63.5143 92.4253 63.4117C92.5358 63.309 92.62 63.1812 92.6705 63.0391C92.6873 62.8662 92.6459 62.6927 92.5527 62.5461C92.4596 62.3996 92.3201 62.2883 92.1565 62.2301C91.824 62.1264 91.4764 62.0792 91.1283 62.0903C90.1366 62.024 89.1782 61.7055 88.344 61.1651C87.5098 60.6246 86.8275 59.8801 86.3617 59.002" fill="#081821"/>
</g>
<path d="M97.3615 64.4528C97.2887 64.3356 97.2339 64.2082 97.199 64.0748C97.1045 63.8366 96.9759 63.4889 96.821 63.058C96.5186 62.1923 96.1292 60.9941 95.7361 59.656C95.343 58.3178 95.0292 57.0931 94.8175 56.2048C94.7117 55.7588 94.6323 55.3997 94.5832 55.1464C94.5497 55.023 94.5307 54.8962 94.5265 54.7684C94.588 54.8876 94.6325 55.0149 94.6588 55.1464C94.7419 55.4337 94.8402 55.7777 94.9536 56.1859C95.1955 57.0667 95.5357 58.28 95.9251 59.6182C96.3144 60.9563 96.6811 62.1583 96.9532 63.0202C97.0742 63.4246 97.18 63.7762 97.267 64.0559C97.3131 64.1843 97.3448 64.3174 97.3615 64.4528Z" fill="#081821"/>
<path d="M80.2986 75.2749C80.2986 75.2749 83.5645 71.7746 86.4222 71.0867C89.2799 70.3987 99.5161 66.7812 99.5161 66.7812L98.8697 64.7438C99.5283 64.6738 100.139 64.3677 100.59 63.882L101.251 63.2243C102.151 62.2415 103.236 61.7123 104.808 62.2452L105.798 62.5401L106.83 65.5641C107.071 66.2693 107.153 67.019 107.069 67.7594C106.986 68.4998 106.74 69.2127 106.348 69.8468C105.957 70.4809 105.43 71.0205 104.806 71.427C104.182 71.8335 103.475 72.0968 102.737 72.198L80.2986 75.2749Z" fill="#FFBE9D"/>
<path d="M103.761 67.216C103.084 66.9901 102.388 66.8232 101.682 66.717C100.973 66.6743 100.263 66.6945 99.5576 66.7775C100.245 66.5324 100.978 66.4445 101.703 66.5204C102.429 66.5963 103.128 66.834 103.75 67.216H103.761Z" fill="#EB996E"/>
<path d="M80.7899 27.4277C80.514 22.68 86.6981 19.346 90.9203 20.5367C94.8856 21.6707 96.5903 23.6288 97.2292 26.2823C97.868 28.9359 97.8491 31.8087 96.8096 34.3375C96.2955 35.5811 95.3732 36.8474 94.0351 36.9835" fill="#081821"/>
<path d="M93.4492 24.5133C93.7843 24.5483 94.0939 24.7081 94.3166 24.9609C94.5393 25.2137 94.6588 25.5411 94.6513 25.8779L93.8953 44.0786C93.8688 46.2294 90.7276 47.4428 88.4294 47.3936C86.1047 47.3445 86.0253 46.2067 85.9913 44.1617C85.9384 40.7597 85.9384 39.4632 85.9384 39.4821C85.9384 39.501 82.9937 38.9945 82.4041 35.154C82.1017 33.264 82.1962 30.1228 82.3587 27.5713C82.5023 25.2731 84.0257 22.4494 86.3164 22.6951L93.4492 24.5133Z" fill="#FFBE9D"/>
<path d="M83.3339 30.0623C83.3337 30.1898 83.3828 30.3125 83.4708 30.4047C83.5588 30.4969 83.679 30.5517 83.8064 30.5575C83.8688 30.5627 83.9317 30.5552 83.9913 30.5356C84.0508 30.516 84.1059 30.4847 84.1531 30.4435C84.2003 30.4022 84.2388 30.3519 84.2663 30.2956C84.2937 30.2392 84.3096 30.1779 84.3129 30.1153C84.315 29.9868 84.2667 29.8627 84.1783 29.7695C84.09 29.6762 83.9687 29.6212 83.8404 29.6163C83.7777 29.6117 83.7147 29.6196 83.6551 29.6397C83.5956 29.6597 83.5406 29.6914 83.4934 29.7329C83.4463 29.7745 83.4078 29.825 83.3804 29.8816C83.353 29.9381 83.3372 29.9996 83.3339 30.0623Z" fill="#081821"/>
<path d="M83.0164 29.2043C83.0769 29.2685 83.4511 28.9964 83.9765 28.9964C84.502 28.9964 84.8951 29.261 84.9518 29.1967C85.0085 29.1325 84.9178 29.0531 84.7477 28.9283C84.519 28.7702 84.2469 28.687 83.969 28.6902C83.6972 28.6891 83.4322 28.7752 83.213 28.9359C83.0429 29.0606 82.9862 29.1778 83.0164 29.2043Z" fill="#081821"/>
<path d="M88.5012 30.0623C88.5011 30.1905 88.5507 30.3136 88.6395 30.406C88.7283 30.4983 88.8495 30.5526 88.9775 30.5575C89.0399 30.5621 89.1026 30.5543 89.1619 30.5345C89.2212 30.5148 89.2761 30.4834 89.3232 30.4422C89.3703 30.4011 89.4088 30.351 89.4364 30.2949C89.464 30.2387 89.4802 30.1777 89.484 30.1153C89.4851 29.9871 89.4365 29.8635 89.3484 29.7705C89.2603 29.6774 89.1395 29.6222 89.0115 29.6163C88.9486 29.6117 88.8855 29.6196 88.8257 29.6396C88.7659 29.6596 88.7106 29.6912 88.6632 29.7327C88.6157 29.7742 88.5769 29.8247 88.5491 29.8813C88.5213 29.9379 88.5051 29.9994 88.5012 30.0623Z" fill="#081821"/>
<path d="M88.2139 29.3063C88.2744 29.3706 88.6486 29.0947 89.1741 29.0947C89.6995 29.0947 90.0926 29.3593 90.1493 29.295C90.206 29.2307 90.1153 29.1514 89.9452 29.0266C89.7158 28.8701 89.4442 28.787 89.1665 28.7885C88.8947 28.7874 88.6297 28.8735 88.4105 29.0342C88.2404 29.1589 88.1837 29.2761 88.2139 29.3063Z" fill="#081821"/>
<path d="M86.2937 33.2262C86.0154 33.1384 85.7271 33.0864 85.4357 33.0712C85.2996 33.0712 85.1748 33.0296 85.1522 32.9389C85.1385 32.7996 85.1689 32.6594 85.2391 32.5382L85.6398 31.5101C86.1954 30.0472 86.5961 28.8414 86.5356 28.8187C86.1 29.6597 85.7297 30.5329 85.4281 31.4307C85.2958 31.8087 85.1673 32.1376 85.0501 32.4664C84.9639 32.6287 84.9397 32.8168 84.9821 32.9956C85.0006 33.0433 85.0301 33.086 85.0681 33.1201C85.1062 33.1543 85.1519 33.179 85.2013 33.1922C85.2768 33.2114 85.3541 33.2228 85.4319 33.2262C85.7181 33.2616 86.0075 33.2616 86.2937 33.2262Z" fill="#081821"/>
<path d="M85.9308 39.4821C87.7343 39.5095 89.51 39.0358 91.0602 38.1137C91.0602 38.1137 89.8166 40.7597 85.9799 40.3817L85.9308 39.4821Z" fill="#EB996E"/>
<path d="M86.5167 34.5001C86.6174 34.3734 86.7486 34.2744 86.898 34.2122C87.0474 34.1501 87.2102 34.1269 87.371 34.1447C87.4879 34.1555 87.6015 34.1899 87.7048 34.2458C87.8081 34.3016 87.899 34.3779 87.972 34.4698C88.043 34.5573 88.0852 34.6646 88.0926 34.777C88.1 34.8893 88.0724 35.0013 88.0136 35.0973C87.9294 35.1929 87.8184 35.2609 87.6951 35.2926C87.5717 35.3243 87.4417 35.3181 87.3219 35.275C87.0718 35.1863 86.8418 35.0488 86.6452 34.8705C86.5866 34.8276 86.5355 34.7752 86.494 34.7155C86.4756 34.6861 86.4658 34.652 86.4658 34.6172C86.4658 34.5825 86.4756 34.5484 86.494 34.519" fill="#EB996E"/>
<path d="M87.851 33.5929C87.7641 33.5929 87.7641 34.1599 87.2727 34.5681C86.7813 34.9763 86.1689 34.9121 86.1651 34.9915C86.1613 35.0708 86.3012 35.1049 86.5431 35.1124C86.8804 35.1158 87.2081 35.0008 87.4692 34.7873C87.7182 34.5834 87.8782 34.2906 87.9153 33.9709C87.9531 33.7289 87.8888 33.5891 87.851 33.5929Z" fill="#081821"/>
<path d="M87.9757 28.3802C88.0286 28.5239 88.5541 28.4558 89.174 28.5277C89.7939 28.5995 90.308 28.7734 90.3798 28.6448C90.4176 28.5844 90.3307 28.4483 90.1265 28.3084C89.8572 28.1375 89.5524 28.0303 89.2354 27.995C88.9183 27.9596 88.5974 27.997 88.297 28.1043C88.074 28.1988 87.953 28.3122 87.9757 28.3802Z" fill="#081821"/>
<path d="M83.2092 27.6772C83.3037 27.7943 83.6666 27.6772 84.1051 27.6772C84.5435 27.6772 84.914 27.7565 85.0009 27.6318C85.0387 27.5713 84.9782 27.4504 84.8157 27.337C84.5999 27.1981 84.3463 27.1295 84.0899 27.1404C83.8321 27.1426 83.5817 27.2274 83.3755 27.3823C83.2205 27.4919 83.1601 27.6167 83.2092 27.6772Z" fill="#081821"/>
<path d="M88.2064 21.4288C86.9035 21.492 85.6374 21.882 84.5247 22.5628C83.8995 22.8831 83.3439 23.3238 82.8898 23.8597C82.4357 24.3955 82.092 25.0159 81.8787 25.6851C81.8252 25.8233 81.8003 25.971 81.8055 26.1191C81.8107 26.2673 81.8459 26.4128 81.9089 26.5469C82.0303 26.7012 82.2017 26.8082 82.3935 26.8496C82.5853 26.891 82.7856 26.8642 82.9598 26.7737C83.3031 26.5835 83.5961 26.314 83.814 25.9875C83.907 26.3413 84.1156 26.6539 84.4066 26.8756C84.6976 27.0973 85.0544 27.2153 85.4202 27.211C85.786 27.2066 86.1398 27.0801 86.4255 26.8516C86.7112 26.6231 86.9122 26.3056 86.9968 25.9497C87.0258 26.317 87.1951 26.6589 87.4696 26.9046C87.7442 27.1503 88.1028 27.2808 88.471 27.2689C88.8394 27.2374 89.1905 27.0984 89.4808 26.8693C89.771 26.6402 89.9877 26.331 90.1039 25.9799C90.1913 26.6506 90.4207 27.295 90.7768 27.8699C90.9589 28.1512 91.2229 28.3698 91.5332 28.4962C91.8434 28.6226 92.185 28.6507 92.5118 28.5768C92.3728 29.1403 92.3819 29.7302 92.5383 30.2891C92.7386 30.8335 93.6723 42.559 94.2242 42.3851C94.776 42.2113 94.6248 30.2891 94.7496 29.7373C95.0207 28.6891 95.1579 27.6107 95.1578 26.528C95.1938 25.4147 94.8337 24.3247 94.1415 23.4519C93.4494 22.5791 92.4701 21.9801 91.3778 21.7615C90.2853 21.51 89.1639 21.4071 88.0439 21.4553" fill="#081821"/>
<path d="M74.8705 36.6017C74.8705 36.6017 74.8289 36.5337 74.7193 36.4279C74.5617 36.2721 74.3597 36.169 74.141 36.133C73.9717 36.1004 73.7976 36.1027 73.6293 36.1397C73.4609 36.1768 73.3019 36.2478 73.162 36.3485C72.9902 36.4964 72.8596 36.6862 72.7828 36.8994C72.7059 37.1127 72.6855 37.3422 72.7235 37.5656C72.7577 37.8276 72.8564 38.077 73.0108 38.2914C73.186 38.5176 73.4146 38.6968 73.6761 38.813C73.9676 38.9401 74.2822 39.0057 74.6003 39.0057C74.9183 39.0057 75.2329 38.9401 75.5245 38.813C76.1762 38.5187 76.7383 38.057 77.1536 37.4749C77.6134 36.8559 77.9672 36.1648 78.2007 35.4299C78.6997 33.9179 78.8357 32.3833 79.0436 31.0073C79.1987 29.7775 79.5244 28.5752 80.0113 27.4352C80.3466 26.663 80.8442 25.9719 81.4704 25.4092C81.6447 25.2576 81.8304 25.1199 82.0261 24.9971C82.0909 24.9527 82.1607 24.9159 82.234 24.8875C82.234 24.8875 81.958 25.0614 81.5233 25.4507C80.9258 26.0229 80.4535 26.7128 80.1361 27.4768C79.6716 28.6104 79.3638 29.802 79.2213 31.0187C79.021 32.3908 78.8924 33.9331 78.3821 35.4753C78.1431 36.2312 77.779 36.9416 77.3048 37.577C76.8651 38.182 76.2748 38.6615 75.5925 38.968C75.2789 39.1048 74.9405 39.1753 74.5984 39.1753C74.2563 39.1753 73.9178 39.1048 73.6042 38.968C73.3203 38.8364 73.0736 38.6364 72.886 38.3859C72.7185 38.15 72.6132 37.8757 72.5798 37.5883C72.5432 37.3427 72.5713 37.0918 72.6615 36.8604C72.7516 36.629 72.9007 36.4251 73.0939 36.2691C73.2463 36.1631 73.4193 36.0902 73.6015 36.0551C73.7838 36.0199 73.9714 36.0233 74.1523 36.065C74.381 36.1132 74.5887 36.2322 74.7458 36.4052C74.8009 36.4611 74.8434 36.5281 74.8705 36.6017Z" fill="#081821"/>
<path d="M95.1918 42.8841C95.1918 42.8614 95.4148 42.7631 95.7852 42.5061C96.3 42.133 96.7398 41.6662 97.0818 41.1302C97.588 40.3345 97.9191 39.4403 98.0532 38.5069C98.1956 37.3575 98.1458 36.1925 97.9058 35.0595C97.6715 33.8499 97.3237 32.7197 97.0251 31.6877C96.7264 30.6558 96.4694 29.7146 96.3182 28.9132C96.1946 28.2799 96.1213 27.6378 96.099 26.993C96.099 26.7662 96.099 26.5885 96.099 26.4676C96.095 26.4065 96.1014 26.3451 96.1179 26.2861C96.1368 26.2861 96.1179 26.5394 96.167 26.9892C96.216 27.6247 96.3082 28.2562 96.443 28.8792C96.6131 29.6692 96.8739 30.5991 97.199 31.6273C97.5575 32.7449 97.8577 33.8805 98.0986 35.0293C98.3456 36.182 98.3904 37.369 98.2309 38.5371C98.0869 39.494 97.7346 40.4075 97.199 41.2133C96.839 41.7557 96.3721 42.2187 95.8268 42.5741C95.6796 42.671 95.524 42.7545 95.3619 42.8236C95.3071 42.8489 95.2502 42.8691 95.1918 42.8841Z" fill="#081821"/>
<path d="M95.876 40.4233C95.8348 40.4536 95.7888 40.4766 95.7399 40.4914C95.6053 40.5402 95.4659 40.5744 95.3241 40.5934C94.7892 40.6483 94.2504 40.5361 93.7819 40.2721C93.0888 39.8732 92.5637 39.2367 92.3039 38.4804C91.9922 37.5673 91.8901 36.5958 92.0053 35.6378C92.096 34.6248 92.2812 33.6836 92.3644 32.818C92.4475 31.9523 92.4967 31.1699 92.5118 30.5122C92.5269 29.8544 92.5118 29.3215 92.5118 28.951C92.4954 28.7611 92.4954 28.5702 92.5118 28.3802C92.5537 28.5665 92.5777 28.7564 92.5836 28.9472C92.6138 29.3252 92.6441 29.8507 92.6479 30.5159C92.6514 31.2909 92.616 32.0655 92.542 32.8369C92.4664 33.71 92.2888 34.6588 92.198 35.6567C92.0855 36.5854 92.1784 37.5274 92.4702 38.4161C92.7103 39.1395 93.1992 39.7543 93.8499 40.1512C94.2904 40.4167 94.7988 40.548 95.3128 40.5292C95.6794 40.4876 95.8684 40.4044 95.876 40.4233Z" fill="#081821"/>
<path d="M71.151 43.8782C71.1481 43.7496 71.1686 43.6215 71.2115 43.5002C71.3303 43.1652 71.5494 42.8748 71.839 42.6686C72.2951 42.336 72.8398 42.1466 73.4039 42.1243C74.0541 42.0638 74.7912 42.1583 75.5887 42.1243C76.4609 42.0458 77.3018 41.7608 78.042 41.2927C78.8875 40.7478 79.6108 40.0334 80.1663 39.1948C80.7739 38.2634 81.2009 37.2261 81.4251 36.1368C81.6656 34.9634 81.7658 33.7656 81.7237 32.5685C81.7237 31.3362 81.5536 30.1417 81.4818 28.9699C81.3713 27.8419 81.4428 26.7035 81.6934 25.5982C81.9259 24.6561 82.4202 23.7992 83.1192 23.1262C83.8182 22.4533 84.6934 21.992 85.6436 21.7955C86.3711 21.6509 87.1219 21.6728 87.8397 21.8597C88.3768 21.999 88.8875 22.225 89.3517 22.5288C89.6449 22.7189 89.9161 22.9408 90.1607 23.1903C90.2476 23.2772 90.3005 23.3491 90.3421 23.3944C90.3837 23.4398 90.4026 23.4662 90.3988 23.47C90.0677 23.1403 89.7028 22.8463 89.3102 22.5931C88.8428 22.3046 88.3324 22.0928 87.7982 21.9656C87.095 21.7958 86.363 21.7842 85.6549 21.9316C84.8005 22.1184 84.0096 22.5249 83.3604 23.1109C82.6106 23.7832 82.0832 24.6679 81.8484 25.6473C81.6098 26.7339 81.5434 27.8513 81.6519 28.9586C81.7312 30.119 81.8824 31.3211 81.9051 32.5647C81.9432 33.7772 81.8392 34.99 81.5952 36.1784C81.3643 37.2906 80.9243 38.3488 80.2986 39.2969C79.7261 40.1537 78.9806 40.8812 78.11 41.4326C77.3459 41.9085 76.4786 42.1938 75.5812 42.2642C74.7571 42.3095 74.0276 42.2037 73.3926 42.2642C72.8515 42.2809 72.3267 42.4528 71.8806 42.7594C71.5941 42.9511 71.3727 43.2252 71.2455 43.5456C71.1661 43.7497 71.1661 43.8782 71.151 43.8782Z" fill="#00434C"/>
<path d="M90.1002 20.6237C90.1002 20.6048 90.2854 20.6879 90.4782 20.9185C90.7417 21.2255 90.9017 21.6078 90.9355 22.0109C90.9698 22.4146 90.8773 22.819 90.6709 23.1676C90.5084 23.4284 90.3534 23.5456 90.3383 23.5456C90.3232 23.5456 90.429 23.3793 90.5462 23.1185C90.7061 22.7853 90.7739 22.4154 90.7427 22.0472C90.7114 21.679 90.5822 21.3258 90.3685 21.0244C90.2173 20.7673 90.0813 20.6464 90.1002 20.6237Z" fill="#00434C"/>
<path d="M97.6488 30.4252C97.6014 30.2748 97.5673 30.1205 97.5467 29.9641C97.49 29.6617 97.4107 29.2307 97.2935 28.6978C97.1763 28.1648 97.0364 27.5297 96.8474 26.838C96.7529 26.4902 96.6471 26.1274 96.5148 25.7607C96.3899 25.3851 96.2062 25.0317 95.9705 24.7136C95.5195 24.0892 94.9028 23.6035 94.1901 23.3113C93.6074 23.0773 92.9698 23.0156 92.353 23.1336C91.9343 23.2074 91.5353 23.367 91.1812 23.6023C91.0601 23.7008 90.934 23.7929 90.8032 23.8783C90.8032 23.8783 90.8259 23.8405 90.8788 23.78C90.959 23.6921 91.0476 23.6124 91.1434 23.5418C91.493 23.2733 91.8987 23.0872 92.3303 22.9975C92.9743 22.8537 93.6464 22.9036 94.2619 23.1412C95.0115 23.4382 95.6606 23.9431 96.133 24.5965C96.3808 24.9297 96.5723 25.3013 96.7 25.6964C96.8323 26.0744 96.9344 26.4524 97.0289 26.7889C97.2065 27.4919 97.3388 28.1308 97.4333 28.6789C97.5278 29.227 97.5959 29.6541 97.6261 29.9603C97.6539 30.1136 97.6615 30.2699 97.6488 30.4252Z" fill="#00434C"/>
<path d="M90.4932 23.6741C90.079 23.6284 89.6724 23.5293 89.2836 23.3793C88.8621 23.2391 88.4297 23.1341 87.9908 23.0656C87.4592 22.9884 86.9166 23.0483 86.4146 23.2394C85.9125 23.427 85.4673 23.7407 85.1218 24.1504C84.8407 24.4821 84.631 24.8681 84.5057 25.2844C84.4044 25.6799 84.3498 26.0858 84.3431 26.494C84.2999 26.3886 84.2793 26.2753 84.2827 26.1614C84.264 25.8538 84.2934 25.5452 84.3696 25.2466C84.4799 24.7967 84.6891 24.3771 84.982 24.0181C85.3416 23.5753 85.8126 23.2361 86.3465 23.0353C86.8792 22.8343 87.4551 22.7757 88.0173 22.8652C88.4654 22.95 88.9045 23.0765 89.329 23.2432C90.0472 23.5192 90.5008 23.6477 90.4932 23.6741Z" fill="#00434C"/>
<path d="M166.592 151.843C166.929 150.686 167.643 149.575 168.754 149.087C169.866 148.599 171.242 148.872 172.421 149.302C173.6 149.733 174.761 150.304 176.012 150.38C177.263 150.455 178.681 149.866 179.055 148.667C179.406 147.533 178.726 146.339 177.879 145.519C176.98 144.655 175.879 144.032 174.676 143.706C173.474 143.38 172.208 143.362 170.996 143.653C169.785 143.944 168.666 144.535 167.742 145.371C166.819 146.208 166.12 147.263 165.711 148.441" fill="#081821"/>
<path d="M156.666 156.87C154.829 155.124 154.919 152.085 155.838 149.718C156.757 147.352 158.756 145.541 160.99 144.343C163.173 143.198 165.586 142.562 168.05 142.483C170.513 142.404 172.963 142.883 175.214 143.886C174.112 143.933 173.038 144.249 172.087 144.807C171.135 145.366 170.335 146.148 169.756 147.087C168.75 148.762 168.524 150.792 167.692 152.561C166.754 154.553 165.088 156.111 163.037 156.912C160.986 157.714 158.706 157.699 156.666 156.87Z" fill="#00434C"/>
<path d="M155.785 146.384C153.748 143.984 153.476 140.128 153.778 136.995C154.08 133.861 154.802 130.705 154.307 127.594C154.016 125.753 153.302 123.995 153.06 122.143C152.818 120.291 153.162 118.204 154.594 117.01C156.243 115.638 158.836 115.963 160.548 117.248C162.26 118.533 163.254 120.563 163.98 122.578C165.564 127.008 166.157 131.922 164.85 136.458C163.542 140.994 160.469 145.027 155.959 146.392" fill="#00434C"/>
<path d="M154.806 166.097C154.796 166.005 154.796 165.913 154.806 165.821C154.806 165.64 154.806 165.371 154.806 165.027C154.829 164.335 154.893 163.338 155.048 162.117C155.226 160.682 155.486 159.258 155.827 157.853C156.248 156.127 156.902 154.466 157.77 152.916C158.642 151.368 159.712 149.939 160.952 148.667C161.96 147.626 163.078 146.696 164.286 145.897C164.793 145.545 165.288 145.281 165.711 145.031C166.135 144.782 166.524 144.619 166.845 144.472L167.579 144.165C167.662 144.126 167.75 144.094 167.84 144.071C167.764 144.122 167.683 144.165 167.598 144.199L166.879 144.54C166.577 144.698 166.203 144.895 165.776 145.129C165.349 145.364 164.876 145.655 164.373 146.014C163.186 146.823 162.086 147.754 161.092 148.792C159.873 150.061 158.819 151.478 157.955 153.011C156.065 156.284 155.57 159.72 155.195 162.132C155.025 163.353 154.938 164.343 154.893 165.031C154.87 165.356 154.855 165.621 154.844 165.821C154.842 165.914 154.829 166.007 154.806 166.097Z" fill="#081821"/>
<path d="M137.252 136.908C133.472 139.176 133.498 141.247 134.129 143.202C134.761 145.156 137.067 146.509 138.983 145.779C140.068 145.364 140.85 144.422 141.523 143.477C142.196 142.532 142.82 141.519 143.761 140.831C144.702 140.144 146.059 139.894 147.004 140.567" fill="#081821"/>
<path d="M134.436 139.399C135.418 138.038 137.838 137.645 139.387 138.325C140.937 139.006 142.033 140.351 143.054 141.693C144.075 143.035 145.042 144.456 146.437 145.39C147.832 146.324 149.779 146.664 151.17 145.723C151.614 145.393 151.985 144.975 152.261 144.496C152.538 144.017 152.713 143.486 152.776 142.937C152.9 141.839 152.826 140.728 152.557 139.656C152.224 138.076 151.68 136.428 150.418 135.422C149.011 134.307 147.057 134.254 145.258 134.311C143.194 134.379 141.1 134.534 139.168 135.248C137.237 135.963 135.256 137.516 134.436 139.406" fill="#00434C"/>
<path d="M151.676 163.081C151.659 162.973 151.65 162.864 151.65 162.755L151.616 161.822C151.593 160.99 151.555 159.822 151.514 158.386C151.472 156.949 151.404 155.207 151.302 153.29C151.2 151.374 151.049 149.268 150.758 147.08C150.636 146.014 150.429 144.96 150.138 143.927C149.839 142.974 149.453 142.051 148.985 141.168C148.207 139.661 147.178 138.299 145.942 137.138C145.104 136.362 144.157 135.714 143.13 135.214C142.852 135.073 142.567 134.947 142.275 134.836C142.172 134.803 142.072 134.758 141.977 134.704C142.082 134.729 142.186 134.761 142.287 134.799C142.587 134.891 142.88 135.005 143.164 135.139C144.213 135.616 145.182 136.254 146.037 137.029C147.299 138.187 148.35 139.555 149.144 141.073C149.622 141.963 150.016 142.896 150.319 143.859C150.619 144.902 150.831 145.968 150.954 147.046C151.245 149.246 151.385 151.355 151.484 153.275C151.582 155.195 151.623 156.919 151.654 158.374C151.684 159.83 151.691 161.002 151.691 161.81V162.748C151.696 162.859 151.691 162.97 151.676 163.081Z" fill="#081821"/>
<path d="M153.033 164.782C152.85 164.256 152.71 163.716 152.614 163.167C152.352 161.67 152.292 160.145 152.436 158.631C152.665 156.387 153.145 154.176 153.869 152.039C154.644 149.616 155.691 147.023 156.587 144.241C157.028 142.889 157.389 141.512 157.668 140.117C157.915 138.816 158.093 137.502 158.201 136.182C158.373 133.942 158.415 131.694 158.325 129.45C158.261 127.533 158.163 125.984 158.099 124.914C158.068 124.392 158.046 123.976 158.03 123.682C158.03 123.549 158.03 123.443 158.03 123.36C158.024 123.324 158.024 123.287 158.03 123.251C158.032 123.286 158.032 123.321 158.03 123.357C158.03 123.44 158.049 123.546 158.064 123.678C158.091 123.973 158.125 124.385 158.17 124.91C158.257 125.98 158.378 127.53 158.461 129.446C158.57 131.696 158.543 133.951 158.378 136.197C158.275 137.525 158.1 138.846 157.853 140.155C157.577 141.561 157.216 142.95 156.772 144.313C155.872 147.106 154.817 149.692 154.039 152.107C153.311 154.23 152.82 156.427 152.572 158.658C152.416 160.162 152.454 161.68 152.686 163.175C152.776 163.704 152.859 164.112 152.935 164.385C152.965 164.513 152.988 164.615 153.011 164.698C153.021 164.725 153.028 164.753 153.033 164.782Z" fill="#081821"/>
<path d="M162.366 166.483H144.687L144.283 163.081H162.366V166.483Z" fill="#081821"/>
<path d="M146.585 166.097L148.796 176.307H158.401L160.469 166.097H146.585Z" fill="#081821"/>
<path d="M162.366 166.483C162.366 166.539 158.48 166.573 153.672 166.558C148.864 166.543 144.978 166.49 144.978 166.433C144.978 166.377 148.864 166.346 153.672 166.362C158.48 166.377 162.366 166.43 162.366 166.483Z" fill="#00434C"/>
<path d="M159.331 171.521C158.847 171.169 158.325 170.873 157.773 170.641C157.171 170.404 156.531 170.276 155.883 170.263C155.089 170.265 154.302 170.41 153.559 170.69C152.754 170.962 152.001 171.279 151.264 171.446C150.612 171.587 149.939 171.606 149.28 171.502C148.835 171.438 148.405 171.3 148.006 171.094C147.899 171.036 147.797 170.97 147.7 170.898C147.635 170.848 147.601 170.818 147.605 170.814C148.131 171.103 148.707 171.291 149.302 171.366C149.944 171.445 150.595 171.413 151.226 171.272C151.929 171.094 152.682 170.773 153.494 170.497C154.261 170.219 155.072 170.084 155.887 170.1C156.553 170.121 157.21 170.268 157.822 170.531C158.236 170.703 158.624 170.931 158.975 171.208C159.072 171.28 159.162 171.36 159.248 171.446C159.308 171.483 159.338 171.517 159.331 171.521Z" fill="#00434C"/>
<path d="M159.198 172.205C158.726 171.862 158.22 171.569 157.686 171.332C157.107 171.095 156.49 170.967 155.864 170.954C155.098 170.957 154.338 171.094 153.619 171.359C152.84 171.62 152.107 171.922 151.408 172.115C150.795 172.293 150.155 172.365 149.518 172.326C149.082 172.301 148.656 172.185 148.267 171.986C148.163 171.932 148.064 171.869 147.972 171.797C147.908 171.748 147.877 171.718 147.881 171.714C147.885 171.71 148.028 171.797 148.301 171.918C148.689 172.082 149.104 172.173 149.525 172.187C150.152 172.206 150.778 172.123 151.378 171.941C152.058 171.748 152.784 171.442 153.57 171.185C154.31 170.912 155.094 170.776 155.883 170.784C156.969 170.814 158.016 171.199 158.862 171.88C158.979 171.979 159.066 172.058 159.123 172.115C159.179 172.171 159.202 172.198 159.198 172.205Z" fill="#FCFCFC"/>
<path d="M159.516 170.856C159.014 170.494 158.477 170.183 157.913 169.926C157.298 169.662 156.642 169.505 155.974 169.461C155.155 169.444 154.341 169.588 153.578 169.885C152.802 170.19 152.01 170.448 151.204 170.659C150.526 170.777 149.833 170.777 149.155 170.659C148.698 170.586 148.255 170.444 147.84 170.24C147.729 170.181 147.623 170.114 147.522 170.04C147.454 169.987 147.42 169.956 147.424 169.953C147.428 169.949 147.583 170.04 147.874 170.172C148.291 170.345 148.729 170.464 149.178 170.523C149.84 170.618 150.512 170.604 151.17 170.482C151.899 170.323 152.682 169.979 153.513 169.699C154.301 169.394 155.142 169.252 155.985 169.28C156.672 169.334 157.344 169.509 157.97 169.798C158.39 169.986 158.785 170.226 159.146 170.512C159.244 170.589 159.339 170.671 159.429 170.758C159.482 170.807 159.516 170.856 159.516 170.856Z" fill="#FCFCFC"/>
<path d="M35.91 159.985C35.154 161.073 33.6685 160.71 32.9805 160.045C32.2925 159.38 32.0053 158.42 31.7407 157.501C31.1359 155.403 30.5273 153.203 30.9847 151.075C31.0883 150.421 31.3739 149.809 31.8087 149.31C32.0258 149.065 32.3036 148.881 32.6142 148.778C32.9247 148.674 33.2571 148.655 33.5777 148.72C34.3337 148.917 34.7911 149.646 35.1275 150.342C36.1127 152.398 36.6292 154.647 36.6395 156.927C36.6395 157.989 36.5186 159.1 35.9176 159.977" fill="#EB7005"/>
<g opacity="0.2">
<path d="M35.91 159.985C35.154 161.073 33.6685 160.71 32.9805 160.045C32.2925 159.38 32.0053 158.42 31.7407 157.501C31.1359 155.403 30.5273 153.203 30.9847 151.075C31.0883 150.421 31.3739 149.809 31.8087 149.31C32.0258 149.065 32.3036 148.881 32.6142 148.778C32.9247 148.674 33.2571 148.655 33.5777 148.72C34.3337 148.917 34.7911 149.646 35.1275 150.342C36.1127 152.398 36.6292 154.647 36.6395 156.927C36.6395 157.989 36.5186 159.1 35.9176 159.977" fill="#081821"/>
</g>
<path d="M33.0674 165.496C31.7896 164.897 30.354 164.723 28.9699 164.997C28.2125 165.063 27.4992 165.381 26.9438 165.9C26.441 166.46 26.3428 167.443 26.9438 167.923C27.3178 168.175 27.7685 168.289 28.2176 168.244C29.3025 168.244 30.5045 168.044 31.3702 168.694C31.8616 169.072 32.1904 169.684 32.7839 169.866C33.0789 169.934 33.3882 169.905 33.665 169.782C33.9419 169.659 34.1713 169.45 34.3186 169.185C34.6003 168.642 34.6626 168.012 34.4924 167.424C34.4203 167.014 34.2541 166.627 34.0068 166.292C33.7595 165.958 33.4379 165.685 33.0674 165.496Z" fill="#EB7005"/>
<path d="M38.0154 161.546C37.6237 161.035 37.3628 160.435 37.2554 159.8C37.148 159.165 37.1974 158.514 37.3993 157.902C37.8154 156.678 38.5625 155.593 39.5577 154.768C40.6869 153.768 42.0004 152.998 43.4246 152.5C43.976 152.277 44.5693 152.177 45.1634 152.205C45.4601 152.222 45.7484 152.31 46.0028 152.464C46.2572 152.617 46.47 152.831 46.6225 153.086C47.0269 153.861 46.6225 154.802 46.2142 155.57C45.4727 156.924 44.6245 158.217 43.6779 159.437C42.9219 160.419 42.0449 161.387 40.8844 161.829C39.724 162.272 38.5182 162.207 37.9058 161.417" fill="#EB7005"/>
<path d="M35.9742 176.401C35.9328 176.241 35.9099 176.076 35.9061 175.91C35.8683 175.532 35.8268 175.097 35.7738 174.557C35.7209 174.016 35.6264 173.313 35.4714 172.58C35.2936 171.782 35.0522 170.999 34.7495 170.24C34.4547 169.483 34.0537 168.771 33.5588 168.127C33.1535 167.602 32.6372 167.174 32.0468 166.872C31.6462 166.679 31.2174 166.552 30.7767 166.494C30.6111 166.485 30.4466 166.461 30.2853 166.422C30.4522 166.402 30.6211 166.402 30.788 166.422C31.2463 166.455 31.6946 166.572 32.111 166.766C32.7326 167.059 33.2775 167.492 33.7024 168.032C34.22 168.685 34.6366 169.411 34.9385 170.187C35.2466 170.957 35.4857 171.752 35.6529 172.565C35.7819 173.226 35.8703 173.895 35.9175 174.568C35.9591 175.143 35.978 175.604 35.9855 175.925C35.9995 176.084 35.9957 176.243 35.9742 176.401Z" fill="#081821"/>
<path d="M35.8797 175.366C35.8699 175.289 35.8699 175.212 35.8797 175.135V174.477C35.8797 173.91 35.8797 173.086 35.8532 172.066C35.8003 170.032 35.6264 167.22 35.2862 164.128C34.946 161.036 34.4924 158.261 34.0804 156.265C33.9859 155.766 33.8876 155.316 33.7931 154.923C33.6986 154.53 33.6306 154.186 33.5587 153.914C33.4869 153.642 33.4453 153.442 33.4038 153.275C33.3827 153.201 33.37 153.125 33.366 153.048C33.4019 153.116 33.4286 153.189 33.4453 153.264L33.6343 153.891C33.7213 154.164 33.8082 154.504 33.9065 154.897C34.0048 155.29 34.1182 155.736 34.224 156.235C34.7872 158.834 35.21 161.461 35.4903 164.105C35.8305 167.201 35.9817 170.021 35.9968 172.062C35.9968 173.082 35.9968 173.906 35.959 174.477C35.959 174.742 35.9288 174.961 35.9212 175.131C35.9182 175.211 35.9042 175.29 35.8797 175.366Z" fill="#081821"/>
<path d="M35.8683 169.93C35.8502 169.701 35.8502 169.471 35.8683 169.242C35.8948 168.803 35.9553 168.165 36.08 167.386C36.4159 165.353 36.9985 163.369 37.815 161.478C38.5985 159.565 39.7245 157.811 41.1376 156.303C41.3826 156.045 41.6439 155.802 41.9201 155.577C42.0373 155.475 42.1431 155.373 42.2527 155.294L42.5551 155.086C42.737 154.944 42.9305 154.817 43.1335 154.708C42.4704 155.232 41.8393 155.795 41.2435 156.394C39.8809 157.918 38.7857 159.661 38.004 161.55C37.5571 162.582 37.1783 163.643 36.87 164.725C36.5752 165.719 36.3786 166.634 36.2274 167.405C36.0762 168.176 36.0044 168.807 35.9553 169.242C35.9416 169.473 35.9126 169.703 35.8683 169.93Z" fill="#081821"/>
</svg>
