<svg width="17" height="17" viewBox="0 0 17 17" fill="none" xmlns="http://www.w3.org/2000/svg">
<path d="M7.29991 11.1878L13.1853 5.30241C13.3242 5.16352 13.4892 5.09408 13.6801 5.09408C13.8711 5.09408 14.036 5.16352 14.1749 5.30241C14.3138 5.4413 14.3832 5.60623 14.3832 5.7972C14.3832 5.98817 14.3138 6.1531 14.1749 6.29199L7.78602 12.6809C7.64714 12.8198 7.4851 12.8892 7.29991 12.8892C7.11473 12.8892 6.95269 12.8198 6.8138 12.6809L3.82769 9.69477C3.6888 9.55588 3.62225 9.39095 3.62804 9.19998C3.63383 9.00901 3.70616 8.84408 3.84505 8.70519C3.98394 8.5663 4.14887 8.49685 4.33984 8.49685C4.53082 8.49685 4.69575 8.5663 4.83463 8.70519L7.29991 11.1878Z" fill="#EB7005"/>
</svg>
