<svg width="48" height="48" viewBox="0 0 48 48" fill="none" xmlns="http://www.w3.org/2000/svg">
<path d="M24 26.8L14.2 36.6C13.8333 36.9667 13.3667 37.15 12.8 37.15C12.2333 37.15 11.7667 36.9667 11.4 36.6C11.0333 36.2333 10.85 35.7667 10.85 35.2C10.85 34.6333 11.0333 34.1667 11.4 33.8L21.2 24L11.4 14.2C11.0333 13.8333 10.85 13.3667 10.85 12.8C10.85 12.2333 11.0333 11.7667 11.4 11.4C11.7667 11.0333 12.2333 10.85 12.8 10.85C13.3667 10.85 13.8333 11.0333 14.2 11.4L24 21.2L33.8 11.4C34.1667 11.0333 34.6333 10.85 35.2 10.85C35.7667 10.85 36.2333 11.0333 36.6 11.4C36.9667 11.7667 37.15 12.2333 37.15 12.8C37.15 13.3667 36.9667 13.8333 36.6 14.2L26.8 24L36.6 33.8C36.9667 34.1667 37.15 34.6333 37.15 35.2C37.15 35.7667 36.9667 36.2333 36.6 36.6C36.2333 36.9667 35.7667 37.15 35.2 37.15C34.6333 37.15 34.1667 36.9667 33.8 36.6L24 26.8Z" fill="#1D1F20"/>
</svg>
