<svg width="22" height="22" viewBox="0 0 22 22" fill="none" xmlns="http://www.w3.org/2000/svg">
<path d="M8.75417 13.8875L16.5229 6.11875C16.7062 5.93542 16.924 5.84375 17.176 5.84375C17.4281 5.84375 17.6458 5.93542 17.8292 6.11875C18.0125 6.30208 18.1042 6.51979 18.1042 6.77187C18.1042 7.02396 18.0125 7.24167 17.8292 7.425L9.39583 15.8583C9.2125 16.0417 8.99861 16.1333 8.75417 16.1333C8.50972 16.1333 8.29583 16.0417 8.1125 15.8583L4.17083 11.9167C3.9875 11.7333 3.89965 11.5156 3.90729 11.2635C3.91493 11.0115 4.01042 10.7938 4.19375 10.6104C4.37708 10.4271 4.59479 10.3354 4.84687 10.3354C5.09896 10.3354 5.31667 10.4271 5.5 10.6104L8.75417 13.8875Z" fill="#DB5C00"/>
</svg>
