<svg width="100" height="101" viewBox="0 0 100 101" fill="none" xmlns="http://www.w3.org/2000/svg">
<path d="M12.5013 17.2917C7.91797 17.2917 4.16797 21.0417 4.16797 25.6251V75.6251C4.16797 80.2084 7.91797 83.9584 12.5013 83.9584H56.2513C55.118 81.3092 54.4147 78.496 54.168 75.6251H12.5013V33.9584L45.8346 54.7917L79.168 33.9584V46.4584C79.8622 46.4317 80.5571 46.4317 81.2513 46.4584C83.3567 46.4646 85.4542 46.7163 87.5013 47.2084V25.6251C87.5013 21.0417 83.7513 17.2917 79.168 17.2917H12.5013ZM12.5013 25.6251H79.168L45.8346 46.4584L12.5013 25.6251ZM79.168 50.6251L69.793 60.0001L79.168 69.3751V63.1251C81.9306 63.1251 84.5802 64.2225 86.5337 66.1761C88.4872 68.1296 89.5846 70.7791 89.5846 73.5417C89.5846 75.2084 89.2096 76.7917 88.5013 78.2084L93.043 82.7501C94.793 80.1251 95.8346 76.9584 95.8346 73.5417C95.8346 64.3334 88.3763 56.8751 79.168 56.8751V50.6251ZM65.293 64.3334C63.543 66.9584 62.5013 70.1251 62.5013 73.5417C62.5013 82.7501 69.9596 90.2084 79.168 90.2084V96.4584L88.543 87.0834L79.168 77.7084V83.9584C76.4053 83.9584 73.7558 82.8609 71.8023 80.9074C69.8488 78.9539 68.7513 76.3044 68.7513 73.5417C68.7513 71.8751 69.1263 70.2917 69.8346 68.8751L65.293 64.3334Z" fill="#EB7005"/>
</svg>
