<svg width="25" height="25" viewBox="0 0 25 26" fill="none" xmlns="http://www.w3.org/2000/svg">
<g clip-path="url(#clip0_11987_39081)">
<path d="M23.6202 25.5001C24.3821 25.5001 25 24.8823 25 24.1203V1.87979C25 1.11768 24.3821 0.5 23.6202 0.5H1.37979C0.617578 0.5 0 1.11768 0 1.87979V24.1203C0 24.8823 0.617578 25.5001 1.37979 25.5001H23.6202Z" fill="#395185"/>
<path d="M17.2499 25.5001V15.8187H20.4996L20.9861 12.0458H17.2499V9.63682C17.2499 8.54443 17.5533 7.8 19.1198 7.8L21.1178 7.79912V4.42461C20.7721 4.37861 19.5861 4.27588 18.2064 4.27588C15.3258 4.27588 13.3537 6.03418 13.3537 9.26328V12.0458H10.0957V15.8187H13.3537V25.5001H17.2499Z" fill="#FCFCFC"/>
</g>
<defs>
<clipPath id="clip0_11987_39081">
<rect width="25" height="25" fill="white" transform="translate(0 0.5)"/>
</clipPath>
</defs>
</svg>
