<svg width="30" height="30" viewBox="2 2 26 26" fill="none" xmlns="http://www.w3.org/2000/svg">
    <path d="M26.8477 11.715H25.8743V11.6666H14.9993V16.3333H21.8282C20.832 19.0498 18.1549 20.9999 14.9993 20.9999C10.9955 20.9999 7.74935 17.8657 7.74935 13.9999C7.74935 10.1342 10.9955 6.99992 14.9993 6.99992C16.8475 6.99992 18.5289 7.67308 19.8091 8.77267L23.2269 5.47275C21.0688 3.53084 18.1821 2.33325 14.9993 2.33325C8.32633 2.33325 2.91602 7.557 2.91602 13.9999C2.91602 20.4428 8.32633 25.6666 14.9993 25.6666C21.6724 25.6666 27.0827 20.4428 27.0827 13.9999C27.0827 13.2177 26.9993 12.4541 26.8477 11.715Z" fill="#FFC107"/>
    <path d="M4.31055 8.56967L8.28053 11.3808C9.35473 8.81292 11.9563 6.99992 15.0007 6.99992C16.8488 6.99992 18.5302 7.67308 19.8104 8.77267L23.2282 5.47275C21.0701 3.53084 18.1834 2.33325 15.0007 2.33325C10.3595 2.33325 6.33451 4.86317 4.31055 8.56967Z" fill="#FF3D00"/>
    <path d="M14.9994 25.6666C18.1205 25.6666 20.9565 24.5133 23.1006 22.6379L19.3609 19.5824C18.1069 20.5031 16.5747 21.0011 14.9994 20.9999C11.8565 20.9999 9.1879 19.065 8.18256 16.3647L4.24219 19.296C6.24198 23.0742 10.3032 25.6666 14.9994 25.6666Z" fill="#4CAF50"/>
    <path d="M26.8483 11.7152H25.875V11.6667H15V16.3334H21.8289C21.3523 17.6263 20.4939 18.7561 19.3597 19.5832L19.3615 19.582L23.1013 22.6375C22.8366 22.8697 27.0833 19.8334 27.0833 14.0001C27.0833 13.2178 27 12.4542 26.8483 11.7152Z" fill="#1976D2"/>
</svg>
