<svg width="23" height="22" viewBox="0 0 23 22" fill="none" xmlns="http://www.w3.org/2000/svg">
<path d="M10.5833 11.9167H6C5.74028 11.9167 5.52257 11.8288 5.34688 11.6531C5.17118 11.4774 5.08333 11.2597 5.08333 11C5.08333 10.7403 5.17118 10.5226 5.34688 10.3469C5.52257 10.1712 5.74028 10.0833 6 10.0833H10.5833V5.5C10.5833 5.24028 10.6712 5.02257 10.8469 4.84688C11.0226 4.67118 11.2403 4.58333 11.5 4.58333C11.7597 4.58333 11.9774 4.67118 12.1531 4.84688C12.3288 5.02257 12.4167 5.24028 12.4167 5.5V10.0833H17C17.2597 10.0833 17.4774 10.1712 17.6531 10.3469C17.8288 10.5226 17.9167 10.7403 17.9167 11C17.9167 11.2597 17.8288 11.4774 17.6531 11.6531C17.4774 11.8288 17.2597 11.9167 17 11.9167H12.4167V16.5C12.4167 16.7597 12.3288 16.9774 12.1531 17.1531C11.9774 17.3288 11.7597 17.4167 11.5 17.4167C11.2403 17.4167 11.0226 17.3288 10.8469 17.1531C10.6712 16.9774 10.5833 16.7597 10.5833 16.5V11.9167Z" fill="#DB5C00"/>
</svg>
