<svg width="100" height="101" viewBox="0 0 100 101" fill="none" xmlns="http://www.w3.org/2000/svg">
    <path
        d="M54.1663 79.7917C54.1663 78.375 54.333 77 54.5413 75.625H16.6663V33.9583L49.9997 54.7917L83.333 33.9583V55.1667C86.333 55.6667 89.1247 56.7083 91.6663 58.1667V25.625C91.6663 21.0417 87.9163 17.2917 83.333 17.2917H16.6663C12.083 17.2917 8.33301 21.0417 8.33301 25.625V75.625C8.33301 80.2083 12.083 83.9583 16.6663 83.9583H54.5413C54.333 82.5833 54.1663 81.2083 54.1663 79.7917ZM83.333 25.625L49.9997 46.4583L16.6663 25.625H83.333ZM73.958 92.9583L62.4997 80.4583L67.333 75.625L73.958 82.25L88.9163 67.2917L93.7497 73.1667L73.958 92.9583Z"
        fill="#EB7005" />
</svg>
    