<svg width="22" height="22" viewBox="0 0 22 22" fill="none" xmlns="http://www.w3.org/2000/svg">
<path d="M6.41667 19.25C5.9125 19.25 5.4809 19.0705 5.12188 18.7115C4.76285 18.3524 4.58333 17.9208 4.58333 17.4167V5.5C4.32361 5.5 4.1059 5.41215 3.93021 5.23646C3.75451 5.06076 3.66667 4.84306 3.66667 4.58333C3.66667 4.32361 3.75451 4.1059 3.93021 3.93021C4.1059 3.75451 4.32361 3.66667 4.58333 3.66667H8.25C8.25 3.40694 8.33785 3.18924 8.51354 3.01354C8.68924 2.83785 8.90694 2.75 9.16667 2.75H12.8333C13.0931 2.75 13.3108 2.83785 13.4865 3.01354C13.6622 3.18924 13.75 3.40694 13.75 3.66667H17.4167C17.6764 3.66667 17.8941 3.75451 18.0698 3.93021C18.2455 4.1059 18.3333 4.32361 18.3333 4.58333C18.3333 4.84306 18.2455 5.06076 18.0698 5.23646C17.8941 5.41215 17.6764 5.5 17.4167 5.5V17.4167C17.4167 17.9208 17.2372 18.3524 16.8781 18.7115C16.5191 19.0705 16.0875 19.25 15.5833 19.25H6.41667ZM15.5833 5.5H6.41667V17.4167H15.5833V5.5ZM9.16667 15.5833C9.42639 15.5833 9.6441 15.4955 9.81979 15.3198C9.99549 15.1441 10.0833 14.9264 10.0833 14.6667V8.25C10.0833 7.99028 9.99549 7.77257 9.81979 7.59687C9.6441 7.42118 9.42639 7.33333 9.16667 7.33333C8.90694 7.33333 8.68924 7.42118 8.51354 7.59687C8.33785 7.77257 8.25 7.99028 8.25 8.25V14.6667C8.25 14.9264 8.33785 15.1441 8.51354 15.3198C8.68924 15.4955 8.90694 15.5833 9.16667 15.5833ZM12.8333 15.5833C13.0931 15.5833 13.3108 15.4955 13.4865 15.3198C13.6622 15.1441 13.75 14.9264 13.75 14.6667V8.25C13.75 7.99028 13.6622 7.77257 13.4865 7.59687C13.3108 7.42118 13.0931 7.33333 12.8333 7.33333C12.5736 7.33333 12.3559 7.42118 12.1802 7.59687C12.0045 7.77257 11.9167 7.99028 11.9167 8.25V14.6667C11.9167 14.9264 12.0045 15.1441 12.1802 15.3198C12.3559 15.4955 12.5736 15.5833 12.8333 15.5833Z" fill="#DB5C00"/>
</svg>
