<svg width="23" height="22" viewBox="0 0 23 22" fill="none" xmlns="http://www.w3.org/2000/svg">
<path d="M17 20.1667C16.2361 20.1667 15.5868 19.8993 15.0521 19.3646C14.5174 18.8299 14.25 18.1806 14.25 17.4167C14.25 17.3097 14.2576 17.199 14.2729 17.0844C14.2882 16.9698 14.3111 16.8667 14.3417 16.775L7.87917 13.0167C7.61944 13.2458 7.32917 13.4253 7.00833 13.5552C6.6875 13.6851 6.35139 13.75 6 13.75C5.23611 13.75 4.58681 13.4826 4.05208 12.9479C3.51736 12.4132 3.25 11.7639 3.25 11C3.25 10.2361 3.51736 9.58681 4.05208 9.05208C4.58681 8.51736 5.23611 8.25 6 8.25C6.35139 8.25 6.6875 8.31493 7.00833 8.44479C7.32917 8.57465 7.61944 8.75417 7.87917 8.98333L14.3417 5.225C14.3111 5.13333 14.2882 5.03021 14.2729 4.91562C14.2576 4.80104 14.25 4.69028 14.25 4.58333C14.25 3.81944 14.5174 3.17014 15.0521 2.63542C15.5868 2.10069 16.2361 1.83333 17 1.83333C17.7639 1.83333 18.4132 2.10069 18.9479 2.63542C19.4826 3.17014 19.75 3.81944 19.75 4.58333C19.75 5.34722 19.4826 5.99653 18.9479 6.53125C18.4132 7.06597 17.7639 7.33333 17 7.33333C16.6486 7.33333 16.3125 7.2684 15.9917 7.13854C15.6708 7.00868 15.3806 6.82917 15.1208 6.6L8.65833 10.3583C8.68889 10.45 8.71181 10.5531 8.72708 10.6677C8.74236 10.7823 8.75 10.8931 8.75 11C8.75 11.1069 8.74236 11.2177 8.72708 11.3323C8.71181 11.4469 8.68889 11.55 8.65833 11.6417L15.1208 15.4C15.3806 15.1708 15.6708 14.9913 15.9917 14.8615C16.3125 14.7316 16.6486 14.6667 17 14.6667C17.7639 14.6667 18.4132 14.934 18.9479 15.4688C19.4826 16.0035 19.75 16.6528 19.75 17.4167C19.75 18.1806 19.4826 18.8299 18.9479 19.3646C18.4132 19.8993 17.7639 20.1667 17 20.1667ZM17 5.5C17.2597 5.5 17.4774 5.41215 17.6531 5.23646C17.8288 5.06076 17.9167 4.84306 17.9167 4.58333C17.9167 4.32361 17.8288 4.1059 17.6531 3.93021C17.4774 3.75451 17.2597 3.66667 17 3.66667C16.7403 3.66667 16.5226 3.75451 16.3469 3.93021C16.1712 4.1059 16.0833 4.32361 16.0833 4.58333C16.0833 4.84306 16.1712 5.06076 16.3469 5.23646C16.5226 5.41215 16.7403 5.5 17 5.5ZM6 11.9167C6.25972 11.9167 6.47743 11.8288 6.65312 11.6531C6.82882 11.4774 6.91667 11.2597 6.91667 11C6.91667 10.7403 6.82882 10.5226 6.65312 10.3469C6.47743 10.1712 6.25972 10.0833 6 10.0833C5.74028 10.0833 5.52257 10.1712 5.34688 10.3469C5.17118 10.5226 5.08333 10.7403 5.08333 11C5.08333 11.2597 5.17118 11.4774 5.34688 11.6531C5.52257 11.8288 5.74028 11.9167 6 11.9167ZM17 18.3333C17.2597 18.3333 17.4774 18.2455 17.6531 18.0698C17.8288 17.8941 17.9167 17.6764 17.9167 17.4167C17.9167 17.1569 17.8288 16.9392 17.6531 16.7635C17.4774 16.5878 17.2597 16.5 17 16.5C16.7403 16.5 16.5226 16.5878 16.3469 16.7635C16.1712 16.9392 16.0833 17.1569 16.0833 17.4167C16.0833 17.6764 16.1712 17.8941 16.3469 18.0698C16.5226 18.2455 16.7403 18.3333 17 18.3333Z" fill="#3B494F"/>
</svg>
